<?xml version="1.0" encoding="UTF-8" standalone="no"?>
<svg
   xmlns:dc="http://purl.org/dc/elements/1.1/"
   xmlns:cc="http://creativecommons.org/ns#"
   xmlns:rdf="http://www.w3.org/1999/02/22-rdf-syntax-ns#"
   xmlns:svg="http://www.w3.org/2000/svg"
   xmlns="http://www.w3.org/2000/svg"
   xmlns:sodipodi="http://sodipodi.sourceforge.net/DTD/sodipodi-0.dtd"
   xmlns:inkscape="http://www.inkscape.org/namespaces/inkscape"
   version="1.1"
   viewBox="0 0 661.54462 354.46851"
   stroke-miterlimit="10"
   id="svg123"
   sodipodi:docname="volume_map.svg"
   width="661.54462"
   height="354.46851"
   style="fill:none;stroke:none;stroke-linecap:square;stroke-miterlimit:10"
   inkscape:version="0.92.4 (unknown)">
  <metadata
     id="metadata129">
    <rdf:RDF>
      <cc:Work
         rdf:about="">
        <dc:format>image/svg+xml</dc:format>
        <dc:type
           rdf:resource="http://purl.org/dc/dcmitype/StillImage" />
      </cc:Work>
    </rdf:RDF>
  </metadata>
  <defs
     id="defs127" />
  <sodipodi:namedview
     pagecolor="#ffffff"
     bordercolor="#666666"
     borderopacity="1"
     objecttolerance="10"
     gridtolerance="10"
     guidetolerance="10"
     inkscape:pageopacity="0"
     inkscape:pageshadow="2"
     inkscape:window-width="1252"
     inkscape:window-height="895"
     id="namedview125"
     showgrid="false"
     inkscape:zoom="0.5462963"
     inkscape:cx="703.83535"
     inkscape:cy="250.0704"
     inkscape:window-x="0"
     inkscape:window-y="380"
     inkscape:window-maximized="0"
     inkscape:current-layer="g121" />
  <clipPath
     id="p.0">
    <path
       d="M 0,0 H 1152 V 864 H 0 Z"
       id="path2"
       inkscape:connector-curvature="0"
       style="clip-rule:nonzero" />
  </clipPath>
  <g
     clip-path="url(#p.0)"
     id="g121"
     transform="translate(-120.34646,-96.90551)">
    <path
       d="M 0,0 H 1152 V 864 H 0 Z"
       id="path5"
       inkscape:connector-curvature="0"
       style="fill:#000000;fill-opacity:0;fill-rule:evenodd" />
    <path
       d="M 207.07349,96.90551 H 694.66407 V 261.12597 H 207.07349 Z"
       id="path7"
       inkscape:connector-curvature="0"
       style="fill:#ffffff;fill-rule:evenodd" />
    <path
       d="M 207.07349,96.90551 H 694.66407 V 261.12597 H 207.07349 Z"
       id="path9"
       inkscape:connector-curvature="0"
       style="fill-rule:evenodd;stroke:#000000;stroke-width:1;stroke-linecap:butt;stroke-linejoin:round;stroke-dasharray:4, 3" />
    <path
       d="m 225.43286,113.35676 q -0.21875,-0.26563 -0.59375,-0.5 -0.375,-0.25 -0.84375,-0.4375 -0.45313,-0.20313 -1.01563,-0.3125 -0.54687,-0.125 -1.14062,-0.125 -1.54688,0 -2.26563,0.57812 -0.71875,0.57813 -0.71875,1.57813 0,0.54687 0.20313,0.90625 0.20312,0.34375 0.64062,0.60937 0.4375,0.25 1.09375,0.4375 0.65625,0.17188 1.54688,0.39063 1.03125,0.21875 1.85937,0.51562 0.82813,0.28125 1.40625,0.71875 0.59375,0.42188 0.90625,1.04688 0.3125,0.60937 0.3125,1.5 0,0.95312 -0.375,1.65625 -0.375,0.6875 -1.01562,1.15625 -0.64063,0.45312 -1.53125,0.67187 -0.875,0.20313 -1.89063,0.20313 -1.53125,0 -2.90625,-0.46875 -1.375,-0.48438 -2.48437,-1.39063 l 0.79687,-1.42187 q 0.29688,0.32812 0.76563,0.64062 0.48437,0.3125 1.09375,0.5625 0.60937,0.25 1.29687,0.42188 0.70313,0.15625 1.46875,0.15625 1.42188,0 2.20313,-0.5 0.78125,-0.51563 0.78125,-1.51563 0,-0.5625 -0.25,-0.9375 -0.25,-0.39062 -0.73438,-0.67187 -0.48437,-0.28125 -1.20312,-0.48438 -0.71875,-0.21875 -1.64063,-0.45312 -1,-0.23438 -1.76562,-0.51563 -0.76563,-0.28125 -1.28125,-0.67187 -0.51563,-0.39063 -0.78125,-0.95313 -0.25,-0.5625 -0.25,-1.34375 0,-0.95312 0.34375,-1.67187 0.35937,-0.73438 0.98437,-1.23438 0.64063,-0.5 1.51563,-0.75 0.89062,-0.26562 1.90625,-0.26562 1.34375,0 2.42187,0.42187 1.09375,0.40625 1.9375,1.09375 z m 11.78354,10.46875 h -1.64063 v -5.45313 q 0,-1.5 -0.53125,-2.23437 -0.51562,-0.75 -1.53125,-0.75 -0.48437,0 -0.96875,0.20312 -0.48437,0.1875 -0.90625,0.53125 -0.42187,0.32813 -0.75,0.79688 -0.3125,0.46875 -0.48437,1.03125 v 5.875 h -1.64063 v -13.625 h 1.64063 v 5.96875 q 0.57812,-1.0625 1.5625,-1.65625 0.98437,-0.59375 2.17187,-0.59375 0.85938,0 1.45313,0.32812 0.59375,0.3125 0.9375,0.85938 0.35937,0.53125 0.51562,1.29687 0.17188,0.75 0.17188,1.59375 z m 5.05406,0.1875 q -0.6875,0 -1.29687,-0.23438 -0.59375,-0.23437 -1.03125,-0.64062 -0.4375,-0.40625 -0.6875,-0.95313 -0.25,-0.5625 -0.25,-1.21875 0,-0.67187 0.29687,-1.21875 0.29688,-0.54687 0.84375,-0.9375 0.54688,-0.39062 1.29688,-0.60937 0.76562,-0.23438 1.67187,-0.23438 0.70313,0 1.42188,0.14063 0.73437,0.125 1.29687,0.34375 v -0.78125 q 0,-1.1875 -0.67187,-1.875 -0.67188,-0.6875 -1.90625,-0.6875 -1.46875,0 -3.09375,1.14062 l -0.54688,-1.0625 q 1.89063,-1.26562 3.79688,-1.26562 1.92187,0 2.98437,1.03125 1.07813,1.01562 1.07813,2.89062 v 3.96875 q 0,0.57813 0.51562,0.59375 v 1.42188 q -0.25,0.0312 -0.42187,0.0469 -0.17188,0.0312 -0.35938,0.0312 -0.48437,0 -0.78125,-0.28125 -0.28125,-0.29687 -0.32812,-0.71875 l -0.0469,-0.6875 q -0.65625,0.875 -1.65625,1.34375 -0.98437,0.45313 -2.125,0.45313 z m 0.42188,-1.23438 q 0.875,0 1.625,-0.32812 0.76562,-0.32813 1.15625,-0.85938 0.35937,-0.35937 0.35937,-0.73437 v -1.4375 q -1.20312,-0.46875 -2.48437,-0.46875 -1.23438,0 -2.01563,0.53125 -0.76562,0.51562 -0.76562,1.35937 0,0.40625 0.15625,0.76563 0.15625,0.35937 0.4375,0.625 0.29687,0.25 0.6875,0.40625 0.40625,0.14062 0.84375,0.14062 z m 12.55432,-7.25 q -1.21875,0.0312 -2.17188,0.625 -0.9375,0.59375 -1.32812,1.67188 v 6 h -1.64063 v -9.73438 h 1.53125 v 2.25 q 0.5,-1 1.3125,-1.625 0.82813,-0.625 1.76563,-0.70312 0.1875,0 0.3125,0 0.125,0 0.21875,0.0156 z m 5.7201,8.48438 q -1.10937,0 -2.03125,-0.39063 -0.90625,-0.40625 -1.5625,-1.09375 -0.64062,-0.70312 -1.01562,-1.625 -0.35939,-0.92187 -0.35939,-1.95312 0,-1.01563 0.35939,-1.92188 0.375,-0.92187 1.03125,-1.60937 0.65625,-0.70313 1.5625,-1.09375 0.92187,-0.40625 2.03125,-0.40625 1.09375,0 2,0.42187 0.90625,0.40625 1.53125,1.09375 0.64062,0.67188 0.98437,1.57813 0.34375,0.90625 0.34375,1.875 0,0.20312 -0.0156,0.375 0,0.15625 -0.0156,0.25 h -8.07812 q 0.0625,0.73437 0.32812,1.32812 0.28125,0.59375 0.73438,1.03125 0.45312,0.42188 1.01562,0.67188 0.57813,0.23437 1.20313,0.23437 0.45312,0 0.875,-0.10937 0.4375,-0.125 0.8125,-0.32813 0.375,-0.21875 0.65625,-0.51562 0.29687,-0.29688 0.4375,-0.67188 l 1.42187,0.39063 q -0.25,0.54687 -0.67187,1 -0.40625,0.4375 -0.96875,0.76562 -0.54688,0.32813 -1.21875,0.51563 -0.67188,0.1875 -1.39063,0.1875 z m 3.32813,-5.70313 q -0.0469,-0.70312 -0.34375,-1.28125 -0.28125,-0.59375 -0.71875,-1 -0.4375,-0.40625 -1.01563,-0.64062 -0.57812,-0.23438 -1.23437,-0.23438 -0.65625,0 -1.23438,0.23438 -0.57812,0.23437 -1.01562,0.65625 -0.4375,0.40625 -0.71875,0.98437 -0.26563,0.57813 -0.3125,1.28125 z m 7.38522,5.70313 q -1,0 -1.85937,-0.40625 -0.85938,-0.42188 -1.48438,-1.10938 -0.60937,-0.6875 -0.95312,-1.59375 -0.34375,-0.92187 -0.34375,-1.92187 0,-1.03125 0.32812,-1.95313 0.32813,-0.92187 0.90625,-1.60937 0.59375,-0.70313 1.40625,-1.09375 0.8125,-0.40625 1.78125,-0.40625 1.17188,0 2.09375,0.625 0.9375,0.60937 1.46875,1.48437 v -5.82812 h 1.64063 v 11.60937 q 0,0.57813 0.53125,0.59375 v 1.42188 q -0.26563,0.0312 -0.42188,0.0469 -0.15625,0.0312 -0.3125,0.0312 -0.48437,0 -0.84375,-0.32812 -0.35937,-0.32813 -0.35937,-0.75 v -0.82813 q -0.57813,0.95313 -1.54688,1.48438 -0.95312,0.53125 -2.03125,0.53125 z m 0.40625,-1.42188 q 0.4375,0 0.90625,-0.15625 0.48438,-0.17187 0.90625,-0.46875 0.42188,-0.3125 0.71875,-0.70312 0.3125,-0.40625 0.40625,-0.85938 v -2.79687 q -0.17187,-0.45313 -0.51562,-0.875 -0.32813,-0.42188 -0.75,-0.73438 -0.40625,-0.3125 -0.89063,-0.48437 -0.46875,-0.17188 -0.9375,-0.17188 -0.73437,0 -1.32812,0.3125 -0.57813,0.29688 -1,0.8125 -0.42188,0.51563 -0.64063,1.1875 -0.21875,0.65625 -0.21875,1.34375 0,0.71875 0.25,1.39063 0.26563,0.65625 0.71875,1.14062 0.45313,0.48438 1.04688,0.78125 0.60937,0.28125 1.32812,0.28125 z m 20.50168,1.23438 h -1.64062 v -5.45313 q 0,-1.5625 -0.48438,-2.26562 -0.46875,-0.71875 -1.4375,-0.71875 -0.51562,0 -1.01562,0.20312 -0.5,0.1875 -0.95313,0.53125 -0.4375,0.32813 -0.78125,0.79688 -0.32812,0.46875 -0.5,1.03125 v 5.875 h -1.64062 v -9.73438 h 1.48437 v 2.07813 q 0.57813,-1.01563 1.67188,-1.625 1.09375,-0.625 2.375,-0.625 0.84375,0 1.40625,0.3125 0.5625,0.29687 0.89062,0.85937 0.34375,0.54688 0.48438,1.29688 0.14062,0.73437 0.14062,1.60937 z m 6.86658,0.1875 q -1.10938,0 -2.03125,-0.39063 -0.90625,-0.40625 -1.5625,-1.09375 -0.64063,-0.70312 -1.01563,-1.625 -0.35937,-0.92187 -0.35937,-1.95312 0,-1.01563 0.35937,-1.92188 0.375,-0.92187 1.03125,-1.60937 0.65625,-0.70313 1.5625,-1.09375 0.92188,-0.40625 2.03125,-0.40625 1.09375,0 2,0.42187 0.90625,0.40625 1.53125,1.09375 0.64063,0.67188 0.98438,1.57813 0.34375,0.90625 0.34375,1.875 0,0.20312 -0.0156,0.375 0,0.15625 -0.0156,0.25 h -8.07813 q 0.0625,0.73437 0.32813,1.32812 0.28125,0.59375 0.73437,1.03125 0.45313,0.42188 1.01563,0.67188 0.57812,0.23437 1.20312,0.23437 0.45313,0 0.875,-0.10937 0.4375,-0.125 0.8125,-0.32813 0.375,-0.21875 0.65625,-0.51562 0.29688,-0.29688 0.4375,-0.67188 l 1.42188,0.39063 q -0.25,0.54687 -0.67188,1 -0.40625,0.4375 -0.96875,0.76562 -0.54687,0.32813 -1.21875,0.51563 -0.67187,0.1875 -1.39062,0.1875 z m 3.32812,-5.70313 q -0.0469,-0.70312 -0.34375,-1.28125 -0.28125,-0.59375 -0.71875,-1 -0.4375,-0.40625 -1.01562,-0.64062 -0.57813,-0.23438 -1.23438,-0.23438 -0.65625,0 -1.23437,0.23438 -0.57813,0.23437 -1.01563,0.65625 -0.4375,0.40625 -0.71875,0.98437 -0.26562,0.57813 -0.3125,1.28125 z m 8.32312,5.03125 q -0.14062,0.0781 -0.39062,0.1875 -0.23438,0.0937 -0.54688,0.20313 -0.3125,0.0937 -0.67187,0.15625 -0.35938,0.0625 -0.75,0.0625 -0.90625,0 -1.5625,-0.48438 -0.64063,-0.5 -0.64063,-1.54687 v -6.54688 h -1.32812 v -1.28125 h 1.32812 v -3.25 h 1.64063 v 3.25 h 2.17187 v 1.28125 h -2.17187 v 6.04688 q 0.0312,0.54687 0.34375,0.79687 0.32812,0.23438 0.75,0.23438 0.48437,0 0.89062,-0.15625 0.40625,-0.17188 0.54688,-0.26563 z m 13.7389,-9.25 h 1.57812 l -4.14062,9.73438 h -1.35938 l -1.95312,-4.75 -1.95313,4.75 h -1.35937 l -4.14063,-9.73438 h 1.5625 l 3.35938,8.10938 1.64062,-4.04688 -1.67187,-4.04687 h 1.35937 l 1.20313,3.10937 1.1875,-3.10937 h 1.35937 l -1.65625,4.04687 1.64063,4.04688 z m 7.02764,9.92188 q -1.09375,0 -2,-0.40625 -0.90625,-0.42188 -1.5625,-1.10938 -0.64062,-0.6875 -1,-1.59375 -0.34375,-0.92187 -0.34375,-1.92187 0,-1.03125 0.35938,-1.9375 0.375,-0.92188 1.01562,-1.60938 0.64063,-0.6875 1.54688,-1.09375 0.90625,-0.42187 1.98437,-0.42187 1.07813,0 1.98438,0.42187 0.92187,0.40625 1.5625,1.09375 0.65625,0.6875 1.01562,1.60938 0.35938,0.90625 0.35938,1.9375 0,1 -0.35938,1.92187 -0.34375,0.90625 -1,1.59375 -0.65625,0.6875 -1.5625,1.10938 -0.90625,0.40625 -2,0.40625 z m -3.23437,-5.01563 q 0,0.76563 0.25,1.42188 0.26562,0.64062 0.70312,1.125 0.4375,0.48437 1.01563,0.76562 0.59375,0.28125 1.26562,0.28125 0.67188,0 1.25,-0.28125 0.59375,-0.28125 1.04688,-0.76562 0.45312,-0.5 0.70312,-1.15625 0.25,-0.67188 0.25,-1.4375 0,-0.73438 -0.25,-1.39063 -0.25,-0.67187 -0.70312,-1.15625 -0.45313,-0.5 -1.04688,-0.78125 -0.57812,-0.28125 -1.25,-0.28125 -0.67187,0 -1.26562,0.29688 -0.57813,0.28125 -1.01563,0.78125 -0.4375,0.48437 -0.70312,1.15625 -0.25,0.65625 -0.25,1.42187 z m 15.30011,-3.46875 q -1.21875,0.0312 -2.17188,0.625 -0.9375,0.59375 -1.32812,1.67188 v 6 h -1.64063 v -9.73438 h 1.53125 v 2.25 q 0.5,-1 1.3125,-1.625 0.82813,-0.625 1.76563,-0.70312 0.1875,0 0.3125,0 0.125,0 0.21875,0.0156 z m 8.49097,8.29688 -3.35938,-4.75 -1.85937,1.75 v 3 h -1.64063 v -13.625 h 1.64063 v 8.95312 l 5,-5.04687 h 1.8125 l -3.89063,4.03125 4.07813,5.6875 z m 11.32263,0.1875 q -1.17188,0 -2.3125,-0.35938 -1.14063,-0.375 -1.95313,-1.0625 l 0.70313,-1.09375 q 0.85937,0.65625 1.71875,0.98438 0.85937,0.3125 1.8125,0.3125 1.0625,0 1.6875,-0.40625 0.625,-0.42188 0.625,-1.1875 0,-0.35938 -0.17188,-0.60938 -0.17187,-0.25 -0.51562,-0.4375 -0.32813,-0.1875 -0.84375,-0.32812 -0.51563,-0.15625 -1.21875,-0.32813 -0.875,-0.21875 -1.51563,-0.42187 -0.625,-0.21875 -1.03125,-0.48438 -0.40625,-0.28125 -0.59375,-0.67187 -0.1875,-0.40625 -0.1875,-0.98438 0,-0.71875 0.28125,-1.28125 0.29688,-0.57812 0.79688,-0.95312 0.5,-0.39063 1.17187,-0.57813 0.6875,-0.20312 1.48438,-0.20312 1.09375,0 2.04687,0.35937 0.95313,0.34375 1.60938,0.92188 l -0.75,1 q -0.625,-0.54688 -1.39063,-0.8125 -0.76562,-0.28125 -1.5625,-0.28125 -0.89062,0 -1.51562,0.39062 -0.625,0.375 -0.625,1.21875 0,0.34375 0.10937,0.5625 0.125,0.21875 0.40625,0.39063 0.28125,0.17187 0.71875,0.29687 0.4375,0.125 1.0625,0.28125 0.96875,0.21875 1.6875,0.45313 0.71875,0.23437 1.1875,0.5625 0.48438,0.3125 0.70313,0.75 0.23437,0.42187 0.23437,1.03125 0,1.35937 -1.04687,2.17187 -1.03125,0.79688 -2.8125,0.79688 z m 10.84119,-0.67188 q -0.14063,0.0781 -0.39063,0.1875 -0.23437,0.0937 -0.54687,0.20313 -0.3125,0.0937 -0.67188,0.15625 -0.35937,0.0625 -0.75,0.0625 -0.90625,0 -1.5625,-0.48438 -0.64062,-0.5 -0.64062,-1.54687 v -6.54688 h -1.32813 v -1.28125 h 1.32813 v -3.25 h 1.64062 v 3.25 h 2.17188 v 1.28125 h -2.17188 v 6.04688 q 0.0312,0.54687 0.34375,0.79687 0.32813,0.23438 0.75,0.23438 0.48438,0 0.89063,-0.15625 0.40625,-0.17188 0.54687,-0.26563 z m 5.65509,0.67188 q -1.09375,0 -2,-0.40625 -0.90625,-0.42188 -1.5625,-1.10938 -0.64063,-0.6875 -1,-1.59375 -0.34375,-0.92187 -0.34375,-1.92187 0,-1.03125 0.35937,-1.9375 0.375,-0.92188 1.01563,-1.60938 0.64062,-0.6875 1.54687,-1.09375 0.90625,-0.42187 1.98438,-0.42187 1.07812,0 1.98437,0.42187 0.92188,0.40625 1.5625,1.09375 0.65625,0.6875 1.01563,1.60938 0.35937,0.90625 0.35937,1.9375 0,1 -0.35937,1.92187 -0.34375,0.90625 -1,1.59375 -0.65625,0.6875 -1.5625,1.10938 -0.90625,0.40625 -2,0.40625 z m -3.23438,-5.01563 q 0,0.76563 0.25,1.42188 0.26563,0.64062 0.70313,1.125 0.4375,0.48437 1.01562,0.76562 0.59375,0.28125 1.26563,0.28125 0.67187,0 1.25,-0.28125 0.59375,-0.28125 1.04687,-0.76562 0.45313,-0.5 0.70313,-1.15625 0.25,-0.67188 0.25,-1.4375 0,-0.73438 -0.25,-1.39063 -0.25,-0.67187 -0.70313,-1.15625 -0.45312,-0.5 -1.04687,-0.78125 -0.57813,-0.28125 -1.25,-0.28125 -0.67188,0 -1.26563,0.29688 -0.57812,0.28125 -1.01562,0.78125 -0.4375,0.48437 -0.70313,1.15625 -0.25,0.65625 -0.25,1.42187 z m 15.30008,-3.46875 q -1.21875,0.0312 -2.17188,0.625 -0.9375,0.59375 -1.32812,1.67188 v 6 h -1.64063 v -9.73438 h 1.53125 v 2.25 q 0.5,-1 1.3125,-1.625 0.82813,-0.625 1.76563,-0.70312 0.1875,0 0.3125,0 0.125,0 0.21875,0.0156 z m 4.13159,8.48438 q -0.6875,0 -1.29687,-0.23438 -0.59375,-0.23437 -1.03125,-0.64062 -0.4375,-0.40625 -0.6875,-0.95313 -0.25,-0.5625 -0.25,-1.21875 0,-0.67187 0.29687,-1.21875 0.29688,-0.54687 0.84375,-0.9375 0.54688,-0.39062 1.29688,-0.60937 0.76562,-0.23438 1.67187,-0.23438 0.70313,0 1.42188,0.14063 0.73437,0.125 1.29687,0.34375 v -0.78125 q 0,-1.1875 -0.67187,-1.875 -0.67188,-0.6875 -1.90625,-0.6875 -1.46875,0 -3.09375,1.14062 l -0.54688,-1.0625 q 1.89063,-1.26562 3.79688,-1.26562 1.92187,0 2.98437,1.03125 1.07813,1.01562 1.07813,2.89062 v 3.96875 q 0,0.57813 0.51562,0.59375 v 1.42188 q -0.25,0.0312 -0.42187,0.0469 -0.17188,0.0312 -0.35938,0.0312 -0.48437,0 -0.78125,-0.28125 -0.28125,-0.29687 -0.32812,-0.71875 l -0.0469,-0.6875 q -0.65625,0.875 -1.65625,1.34375 -0.98437,0.45313 -2.125,0.45313 z m 0.42188,-1.23438 q 0.875,0 1.625,-0.32812 0.76562,-0.32813 1.15625,-0.85938 0.35937,-0.35937 0.35937,-0.73437 v -1.4375 q -1.20312,-0.46875 -2.48437,-0.46875 -1.23438,0 -2.01563,0.53125 -0.76562,0.51562 -0.76562,1.35937 0,0.40625 0.15625,0.76563 0.15625,0.35937 0.4375,0.625 0.29687,0.25 0.6875,0.40625 0.40625,0.14062 0.84375,0.14062 z m 11.28869,1.15625 q -0.98437,0 -1.8125,-0.40625 -0.82812,-0.40625 -1.4375,-1.09375 -0.59375,-0.70312 -0.92187,-1.59375 -0.32813,-0.89062 -0.32813,-1.85937 0,-1.03125 0.32813,-1.95313 0.32812,-0.92187 0.92187,-1.60937 0.60938,-0.70313 1.4375,-1.09375 0.82813,-0.40625 1.82813,-0.40625 1.23437,0 2.125,0.59375 0.90625,0.59375 1.51562,1.51562 v -1.9375 h 1.45313 v 9.625 q 0,1.04688 -0.39063,1.82813 -0.39062,0.79687 -1.0625,1.32812 -0.67187,0.54688 -1.57812,0.82813 -0.90625,0.28125 -1.92188,0.28125 -1.67187,0 -2.70312,-0.57813 -1.03125,-0.5625 -1.71875,-1.5625 l 0.95312,-0.84375 q 0.57813,0.85938 1.48438,1.28125 0.92187,0.4375 1.98437,0.4375 0.67188,0 1.26563,-0.1875 0.60937,-0.1875 1.0625,-0.5625 0.45312,-0.375 0.71875,-0.9375 0.26562,-0.54687 0.26562,-1.3125 v -1.71875 q -0.28125,0.45313 -0.67187,0.8125 -0.375,0.35938 -0.82813,0.60938 -0.4375,0.25 -0.9375,0.39062 -0.5,0.125 -1.03125,0.125 z m 0.5,-1.34375 q 0.53125,0 1.01563,-0.1875 0.48437,-0.1875 0.89062,-0.48437 0.40625,-0.3125 0.6875,-0.70313 0.28125,-0.39062 0.375,-0.8125 v -2.79687 q -0.20312,-0.5 -0.53125,-0.90625 -0.32812,-0.40625 -0.73437,-0.71875 -0.40625,-0.3125 -0.89063,-0.46875 -0.46875,-0.17188 -0.95312,-0.17188 -0.75,0 -1.34375,0.3125 -0.57813,0.3125 -1,0.84375 -0.40625,0.51563 -0.625,1.1875 -0.21875,0.65625 -0.21875,1.32813 0,0.73437 0.25,1.39062 0.26562,0.64063 0.70312,1.125 0.45313,0.48438 1.0625,0.78125 0.60938,0.28125 1.3125,0.28125 z m 11.57901,1.42188 q -1.10937,0 -2.03125,-0.39063 -0.90625,-0.40625 -1.5625,-1.09375 -0.64062,-0.70312 -1.01562,-1.625 -0.35938,-0.92187 -0.35938,-1.95312 0,-1.01563 0.35938,-1.92188 0.375,-0.92187 1.03125,-1.60937 0.65625,-0.70313 1.5625,-1.09375 0.92187,-0.40625 2.03125,-0.40625 1.09375,0 2,0.42187 0.90625,0.40625 1.53125,1.09375 0.64062,0.67188 0.98437,1.57813 0.34375,0.90625 0.34375,1.875 0,0.20312 -0.0156,0.375 0,0.15625 -0.0156,0.25 h -8.07812 q 0.0625,0.73437 0.32812,1.32812 0.28125,0.59375 0.73438,1.03125 0.45312,0.42188 1.01562,0.67188 0.57813,0.23437 1.20313,0.23437 0.45312,0 0.875,-0.10937 0.4375,-0.125 0.8125,-0.32813 0.375,-0.21875 0.65625,-0.51562 0.29687,-0.29688 0.4375,-0.67188 l 1.42187,0.39063 q -0.25,0.54687 -0.67187,1 -0.40625,0.4375 -0.96875,0.76562 -0.54688,0.32813 -1.21875,0.51563 -0.67188,0.1875 -1.39063,0.1875 z m 3.32813,-5.70313 q -0.0469,-0.70312 -0.34375,-1.28125 -0.28125,-0.59375 -0.71875,-1 -0.4375,-0.40625 -1.01563,-0.64062 -0.57812,-0.23438 -1.23437,-0.23438 -0.65625,0 -1.23438,0.23438 -0.57812,0.23437 -1.01562,0.65625 -0.4375,0.40625 -0.71875,0.98437 -0.26563,0.57813 -0.3125,1.28125 z"
       id="path11"
       inkscape:connector-curvature="0"
       style="fill:#000000;fill-rule:nonzero" />
    <path
       d="m 259.60892,163.21173 v 0 c 0,-8.4505 35.37421,-15.30096 79.0105,-15.30096 43.63629,0 79.0105,6.85046 79.0105,15.30096 v 61.20384 c 0,8.45049 -35.37421,15.30097 -79.0105,15.30097 -43.63629,0 -79.0105,-6.85048 -79.0105,-15.30097 z"
       id="path13"
       inkscape:connector-curvature="0"
       style="fill:#b6d7a8;fill-rule:evenodd" />
    <path
       d="m 417.6299,163.21173 v 0 c 0,8.45048 -35.37421,15.30095 -79.0105,15.30095 -43.63629,0 -79.0105,-6.85047 -79.0105,-15.30095"
       id="path15"
       inkscape:connector-curvature="0"
       style="fill:#000000;fill-opacity:0;fill-rule:evenodd" />
    <path
       d="m 259.60892,163.21173 v 0 c 0,-8.4505 35.37421,-15.30096 79.0105,-15.30096 43.63629,0 79.0105,6.85046 79.0105,15.30096 v 61.20384 c 0,8.45049 -35.37421,15.30097 -79.0105,15.30097 -43.63629,0 -79.0105,-6.85048 -79.0105,-15.30097 z"
       id="path17"
       inkscape:connector-curvature="0"
       style="fill:#000000;fill-opacity:0;fill-rule:evenodd" />
    <path
       d="m 417.6299,163.21173 v 0 c 0,8.45048 -35.37421,15.30095 -79.0105,15.30095 -43.63629,0 -79.0105,-6.85047 -79.0105,-15.30095"
       id="path19"
       inkscape:connector-curvature="0"
       style="fill-rule:evenodd;stroke:#000000;stroke-width:1;stroke-linecap:butt;stroke-linejoin:round" />
    <path
       d="m 259.60892,163.21173 v 0 c 0,-8.4505 35.37421,-15.30096 79.0105,-15.30096 43.63629,0 79.0105,6.85046 79.0105,15.30096 v 61.20384 c 0,8.45049 -35.37421,15.30097 -79.0105,15.30097 -43.63629,0 -79.0105,-6.85048 -79.0105,-15.30097 z"
       id="path21"
       inkscape:connector-curvature="0"
       style="fill-rule:evenodd;stroke:#000000;stroke-width:1;stroke-linecap:butt;stroke-linejoin:round" />
    <path
       d="m 272.7183,209.52475 h -1.98438 l 5.25,-14.40625 h 1.98438 z m 10.67996,-9.625 q 0.5,-0.73438 1.23438,-1.14063 0.73437,-0.40625 1.64062,-0.40625 0.76563,0 1.40625,0.23438 0.64063,0.21875 1.09375,0.70312 0.45313,0.46875 0.70313,1.21875 0.26562,0.75 0.26562,1.79688 v 6.07812 h -2.17187 v -6.09375 q 0,-0.5625 -0.14063,-0.96875 -0.14062,-0.40625 -0.40625,-0.67187 -0.26562,-0.26563 -0.64062,-0.39063 -0.35938,-0.125 -0.84375,-0.125 -0.70313,0 -1.25,0.29688 -0.54688,0.29687 -0.89063,0.79687 v 7.15625 h -2.1875 v -14 h 2.1875 z m 8.61743,3.46875 q 0,-1.0625 0.3125,-1.98438 0.3125,-0.92187 0.89063,-1.59375 0.59375,-0.6875 1.4375,-1.0625 0.85937,-0.375 1.92187,-0.375 1.09375,0 1.9375,0.375 0.85938,0.375 1.4375,1.0625 0.59375,0.67188 0.90625,1.59375 0.3125,0.92188 0.3125,1.98438 v 0.1875 q 0,1.07812 -0.3125,2 -0.3125,0.92187 -0.90625,1.59375 -0.57812,0.65625 -1.4375,1.04687 -0.84375,0.375 -1.90625,0.375 -1.09375,0 -1.95312,-0.375 -0.84375,-0.39062 -1.4375,-1.04687 -0.57813,-0.67188 -0.89063,-1.59375 -0.3125,-0.92188 -0.3125,-2 z m 2.17188,0.1875 q 0,0.67187 0.14062,1.26562 0.14063,0.59375 0.4375,1.04688 0.29688,0.45312 0.75,0.71875 0.45313,0.25 1.09375,0.25 0.60938,0 1.04688,-0.25 0.45312,-0.26563 0.75,-0.71875 0.29687,-0.45313 0.4375,-1.04688 0.14062,-0.59375 0.14062,-1.26562 v -0.1875 q 0,-0.65625 -0.14062,-1.25 -0.14063,-0.59375 -0.4375,-1.03125 -0.29688,-0.45313 -0.75,-0.71875 -0.4375,-0.26563 -1.07813,-0.26563 -0.60937,0 -1.07812,0.26563 -0.45313,0.26562 -0.75,0.71875 -0.28125,0.4375 -0.42188,1.03125 -0.14062,0.59375 -0.14062,1.25 z m 10.67996,-5.03125 0.0469,1.04687 q 0.29687,-0.57812 0.78125,-0.89062 0.5,-0.32813 1.1875,-0.32813 0.625,0 1.04687,0.25 0.42188,0.25 0.625,0.76563 0.29688,-0.46875 0.75,-0.73438 0.45313,-0.28125 1.09375,-0.28125 0.48438,0 0.89063,0.15625 0.40625,0.15625 0.6875,0.5 0.29687,0.34375 0.45312,0.89063 0.15625,0.53125 0.15625,1.28125 v 7.20312 h -2.01562 v -7.21875 q 0,-0.59375 -0.25,-0.8125 -0.25,-0.21875 -0.64063,-0.21875 -0.375,0 -0.59375,0.1875 -0.21875,0.17188 -0.32812,0.45313 v 7.60937 h -1.96875 v -7.21875 q 0,-0.5625 -0.23438,-0.79687 -0.23437,-0.23438 -0.64062,-0.23438 -0.375,0 -0.59375,0.17188 -0.21875,0.15625 -0.34375,0.4375 v 7.64062 h -2.01563 v -9.85937 z m 14.52368,10.04687 q -1.09375,0 -2,-0.35937 -0.89062,-0.375 -1.53125,-1.01563 -0.64062,-0.64062 -1,-1.5 -0.35937,-0.875 -0.35937,-1.89062 v -0.375 q 0,-1.17188 0.375,-2.10938 0.39062,-0.9375 1.01562,-1.59375 0.64063,-0.67187 1.46875,-1.01562 0.84375,-0.35938 1.78125,-0.35938 1.07813,0 1.89063,0.35938 0.82812,0.35937 1.375,1.01562 0.54687,0.64063 0.82812,1.53125 0.28125,0.89063 0.28125,1.95313 v 0.92187 h -6.82812 q 0.0625,0.57813 0.28125,1.07813 0.23437,0.48437 0.59375,0.84375 0.375,0.35937 0.85937,0.5625 0.5,0.20312 1.09375,0.20312 0.82813,0 1.53125,-0.32812 0.70313,-0.32813 1.14063,-0.89063 l 1.17187,1.10938 q -0.23437,0.34375 -0.60937,0.6875 -0.375,0.32812 -0.875,0.59375 -0.5,0.25 -1.125,0.40625 -0.625,0.17187 -1.35938,0.17187 z m -0.26562,-8.46875 q -0.45313,0 -0.84375,0.17188 -0.39063,0.15625 -0.70313,0.46875 -0.3125,0.3125 -0.53125,0.76562 -0.20312,0.45313 -0.29687,1.03125 h 4.625 v -0.17187 q -0.0312,-0.4375 -0.17188,-0.84375 -0.14062,-0.40625 -0.42187,-0.71875 -0.26563,-0.3125 -0.6875,-0.5 -0.40625,-0.20313 -0.96875,-0.20313 z"
       id="path23"
       inkscape:connector-curvature="0"
       style="fill:#000000;fill-rule:nonzero" />
    <path
       d="M 340.69553,330.5105 H 561.042 V 450.88846 H 340.69553 Z"
       id="path25"
       inkscape:connector-curvature="0"
       style="fill:#000000;fill-opacity:0;fill-rule:evenodd" />
    <path
       d="m 429.40002,410.95947 v -5.60938 h 5.60937 v 5.60938 z m 18.6875,0 v -5.60938 h 5.59375 v 5.60938 z m 18.64062,0 v -5.60938 h 5.6406 v 5.60938 z"
       id="path27"
       inkscape:connector-curvature="0"
       style="fill:#000000;fill-rule:nonzero" />
    <path
       d="m 230.521,330.50394 c 0,-17.34436 55.08661,-26.01553 110.17322,-34.68875 55.08664,-8.67322 110.17325,-17.34854 110.17325,-34.69708"
       id="path29"
       inkscape:connector-curvature="0"
       style="fill:#000000;fill-opacity:0;fill-rule:evenodd" />
    <path
       d="m 230.521,330.50394 c 0,-17.34436 55.08661,-26.01553 110.17322,-34.68875 55.08664,-8.67322 110.17325,-17.34854 110.17325,-34.69708"
       id="path31"
       inkscape:connector-curvature="0"
       style="fill-rule:evenodd;stroke:#000000;stroke-width:1;stroke-linecap:butt;stroke-linejoin:round" />
    <path
       d="m 450.86877,261.12598 c 0,17.34439 55.08661,26.01553 110.17322,34.68875 55.08661,8.67325 110.17322,17.34854 110.17322,34.69708"
       id="path33"
       inkscape:connector-curvature="0"
       style="fill:#000000;fill-opacity:0;fill-rule:evenodd" />
    <path
       d="m 450.86877,261.12598 c 0,17.34439 55.08661,26.01553 110.17322,34.68875 55.08661,8.67325 110.17322,17.34854 110.17322,34.69708"
       id="path35"
       inkscape:connector-curvature="0"
       style="fill-rule:evenodd;stroke:#000000;stroke-width:1;stroke-linecap:butt;stroke-linejoin:round" />
    <path
       d="m 450.86877,261.12598 c 0,17.34613 0.0158,26.01901 0.0315,34.69223 0.0158,8.67322 0.0315,17.3468 0.0315,34.6936"
       id="path37"
       inkscape:connector-curvature="0"
       style="fill:#000000;fill-opacity:0;fill-rule:evenodd" />
    <path
       d="m 450.86877,261.12598 c 0,17.34613 0.0158,26.01901 0.0315,34.69223 0.0158,8.67322 0.0315,17.3468 0.0315,34.6936"
       id="path39"
       inkscape:connector-curvature="0"
       style="fill-rule:evenodd;stroke:#000000;stroke-width:1;stroke-linecap:butt;stroke-linejoin:round;stroke-dasharray:4, 3" />
    <path
       d="m 497.88452,163.21173 v 0 c 0,-8.4505 35.37421,-15.30096 79.0105,-15.30096 43.63629,0 79.0105,6.85046 79.0105,15.30096 v 61.20384 c 0,8.45049 -35.37421,15.30097 -79.0105,15.30097 -43.63629,0 -79.0105,-6.85048 -79.0105,-15.30097 z"
       id="path41"
       inkscape:connector-curvature="0"
       style="fill:#b6d7a8;fill-rule:evenodd" />
    <path
       d="m 655.9055,163.21173 v 0 c 0,8.45048 -35.37421,15.30095 -79.0105,15.30095 -43.63629,0 -79.0105,-6.85047 -79.0105,-15.30095"
       id="path43"
       inkscape:connector-curvature="0"
       style="fill:#000000;fill-opacity:0;fill-rule:evenodd" />
    <path
       d="m 497.88452,163.21173 v 0 c 0,-8.4505 35.37421,-15.30096 79.0105,-15.30096 43.63629,0 79.0105,6.85046 79.0105,15.30096 v 61.20384 c 0,8.45049 -35.37421,15.30097 -79.0105,15.30097 -43.63629,0 -79.0105,-6.85048 -79.0105,-15.30097 z"
       id="path45"
       inkscape:connector-curvature="0"
       style="fill:#000000;fill-opacity:0;fill-rule:evenodd" />
    <path
       d="m 655.9055,163.21173 v 0 c 0,8.45048 -35.37421,15.30095 -79.0105,15.30095 -43.63629,0 -79.0105,-6.85047 -79.0105,-15.30095"
       id="path47"
       inkscape:connector-curvature="0"
       style="fill-rule:evenodd;stroke:#000000;stroke-width:1;stroke-linecap:butt;stroke-linejoin:round" />
    <path
       d="m 497.88452,163.21173 v 0 c 0,-8.4505 35.37421,-15.30096 79.0105,-15.30096 43.63629,0 79.0105,6.85046 79.0105,15.30096 v 61.20384 c 0,8.45049 -35.37421,15.30097 -79.0105,15.30097 -43.63629,0 -79.0105,-6.85048 -79.0105,-15.30097 z"
       id="path49"
       inkscape:connector-curvature="0"
       style="fill-rule:evenodd;stroke:#000000;stroke-width:1;stroke-linecap:butt;stroke-linejoin:round" />
    <path
       d="m 510.9939,209.52475 h -1.98438 l 5.25,-14.40625 h 1.98438 z m 14.91431,-3.8125 q 0,-0.25 -0.0937,-0.45313 -0.0937,-0.20312 -0.35938,-0.35937 -0.26562,-0.17188 -0.71875,-0.3125 -0.4375,-0.15625 -1.14062,-0.29688 -0.875,-0.17187 -1.59375,-0.42187 -0.70313,-0.26563 -1.20313,-0.625 -0.5,-0.35938 -0.78125,-0.82813 -0.26562,-0.46875 -0.26562,-1.07812 0,-0.60938 0.28125,-1.14063 0.28125,-0.54687 0.79687,-0.95312 0.53125,-0.42188 1.28125,-0.65625 0.75,-0.23438 1.6875,-0.23438 0.98438,0 1.75,0.25 0.78125,0.23438 1.3125,0.65625 0.54688,0.42188 0.82813,1 0.29687,0.57813 0.29687,1.23438 h -2.1875 q 0,-0.29688 -0.125,-0.5625 -0.125,-0.26563 -0.39062,-0.46875 -0.25,-0.21875 -0.625,-0.34375 -0.375,-0.125 -0.85938,-0.125 -0.5,0 -0.85937,0.10937 -0.35938,0.0937 -0.59375,0.26563 -0.23438,0.17187 -0.35938,0.40625 -0.10937,0.21875 -0.10937,0.46875 0,0.25 0.0781,0.45312 0.0937,0.1875 0.32813,0.35938 0.25,0.15625 0.65625,0.29687 0.42187,0.125 1.09375,0.25 0.92187,0.15625 1.65625,0.40625 0.75,0.25 1.26562,0.60938 0.53125,0.34375 0.8125,0.84375 0.28125,0.48437 0.28125,1.14062 0,0.65625 -0.29687,1.20313 -0.29688,0.54687 -0.85938,0.9375 -0.54687,0.39062 -1.32812,0.60937 -0.78125,0.21875 -1.75,0.21875 -1.0625,0 -1.89063,-0.28125 -0.8125,-0.28125 -1.375,-0.75 -0.5625,-0.46875 -0.84375,-1.0625 -0.28125,-0.59375 -0.28125,-1.20312 h 2.10938 q 0.0312,0.45312 0.23437,0.78125 0.21875,0.3125 0.54688,0.51562 0.32812,0.1875 0.71875,0.28125 0.40625,0.0781 0.8125,0.0781 1.01562,0 1.53125,-0.32813 0.53125,-0.34375 0.53125,-0.89062 z m 6.96118,-5.8125 q 0.5,-0.73438 1.23437,-1.14063 0.73438,-0.40625 1.64063,-0.40625 0.76562,0 1.40625,0.23438 0.64062,0.21875 1.09375,0.70312 0.45312,0.46875 0.70312,1.21875 0.26563,0.75 0.26563,1.79688 v 6.07812 h -2.17188 v -6.09375 q 0,-0.5625 -0.14062,-0.96875 -0.14063,-0.40625 -0.40625,-0.67187 -0.26563,-0.26563 -0.64063,-0.39063 -0.35937,-0.125 -0.84375,-0.125 -0.70312,0 -1.25,0.29688 -0.54687,0.29687 -0.89062,0.79687 v 7.15625 h -2.1875 v -14 h 2.1875 z m 15.30499,8.48437 q -0.0937,-0.1875 -0.15625,-0.42187 -0.0625,-0.25 -0.10937,-0.53125 -0.21875,0.23437 -0.51563,0.4375 -0.28125,0.20312 -0.64062,0.35937 -0.34375,0.15625 -0.75,0.25 -0.40625,0.0937 -0.85938,0.0937 -0.79687,0 -1.4375,-0.21875 -0.625,-0.23437 -1.07812,-0.625 -0.4375,-0.40625 -0.6875,-0.9375 -0.25,-0.53125 -0.25,-1.17187 0,-1.57813 1.17187,-2.40625 1.1875,-0.84375 3.39063,-0.84375 h 1.59375 v -0.65625 q 0,-0.78125 -0.53125,-1.23438 -0.51563,-0.46875 -1.48438,-0.46875 -0.4375,0 -0.76562,0.10938 -0.32813,0.10937 -0.54688,0.29687 -0.21875,0.17188 -0.32812,0.42188 -0.10938,0.23437 -0.10938,0.53125 h -2.17187 q 0,-0.57813 0.26562,-1.125 0.26563,-0.54688 0.78125,-0.96875 0.51563,-0.42188 1.26563,-0.67188 0.76562,-0.25 1.71875,-0.25 0.875,0 1.625,0.21875 0.75,0.20313 1.29687,0.625 0.54688,0.42188 0.85938,1.0625 0.3125,0.625 0.3125,1.46875 v 4.39063 q 0,0.65625 0.0937,1.1875 0.0937,0.53125 0.26562,0.92187 v 0.15625 z m -2.625,-1.57812 q 0.42188,0 0.78125,-0.0937 0.375,-0.10938 0.67188,-0.28125 0.29687,-0.17188 0.5,-0.39063 0.21875,-0.21875 0.34375,-0.4375 v -1.85937 h -1.375 q -1.32813,0 -1.96875,0.4375 -0.64063,0.42187 -0.64063,1.21875 0,0.29687 0.0937,0.5625 0.10938,0.25 0.3125,0.4375 0.21875,0.1875 0.53125,0.29687 0.3125,0.10938 0.75,0.10938 z m 14.30493,-8.45313 q 0.25,0 0.51563,0.0156 0.26562,0.0156 0.5,0.0625 0.25,0.0312 0.45312,0.0781 0.20313,0.0312 0.34375,0.0781 l -0.3125,2.14062 q -1,-0.21875 -1.98437,-0.21875 -1.09375,0 -1.76563,0.45313 -0.65625,0.45312 -0.98437,1.26562 v 6.15625 h -2.17188 v -9.85937 h 2.03125 l 0.10938,1.54687 q 0.59375,-0.8125 1.42187,-1.26562 0.82813,-0.45313 1.84375,-0.45313 z m 9.00806,10.21875 q -1.09375,0 -2,-0.35937 -0.89062,-0.375 -1.53125,-1.01563 -0.64062,-0.64062 -1,-1.5 -0.35937,-0.875 -0.35937,-1.89062 v -0.375 q 0,-1.17188 0.375,-2.10938 0.39062,-0.9375 1.01562,-1.59375 0.64063,-0.67187 1.46875,-1.01562 0.84375,-0.35938 1.78125,-0.35938 1.07813,0 1.89063,0.35938 0.82812,0.35937 1.375,1.01562 0.54687,0.64063 0.82812,1.53125 0.28125,0.89063 0.28125,1.95313 v 0.92187 h -6.82812 q 0.0625,0.57813 0.28125,1.07813 0.23437,0.48437 0.59375,0.84375 0.375,0.35937 0.85937,0.5625 0.5,0.20312 1.09375,0.20312 0.82813,0 1.53125,-0.32812 0.70313,-0.32813 1.14063,-0.89063 l 1.17187,1.10938 q -0.23437,0.34375 -0.60937,0.6875 -0.375,0.32812 -0.875,0.59375 -0.5,0.25 -1.125,0.40625 -0.625,0.17187 -1.35938,0.17187 z m -0.26562,-8.46875 q -0.45313,0 -0.84375,0.17188 -0.39063,0.15625 -0.70313,0.46875 -0.3125,0.3125 -0.53125,0.76562 -0.20312,0.45313 -0.29687,1.03125 h 4.625 v -0.17187 q -0.0312,-0.4375 -0.17188,-0.84375 -0.14062,-0.40625 -0.42187,-0.71875 -0.26563,-0.3125 -0.6875,-0.5 -0.40625,-0.20313 -0.96875,-0.20313 z m 9.57055,9.42188 h -1.98437 l 5.25,-14.40625 h 1.98437 z m 8.21125,-6.14063 q 0,-1.125 0.26562,-2.04687 0.28125,-0.9375 0.78125,-1.59375 0.51563,-0.67188 1.23438,-1.03125 0.73437,-0.35938 1.625,-0.35938 0.8125,0 1.4375,0.28125 0.625,0.26563 1.07812,0.78125 v -5.03125 h 2.1875 v 14 h -1.96875 l -0.10937,-1 q -0.46875,0.57813 -1.125,0.89063 -0.64063,0.29687 -1.51563,0.29687 -0.89062,0 -1.60937,-0.375 -0.71875,-0.39062 -1.23438,-1.04687 -0.5,-0.67188 -0.78125,-1.57813 -0.26562,-0.92187 -0.26562,-2 z m 2.17187,0.1875 q 0,0.67188 0.125,1.25 0.125,0.57813 0.40625,1.01563 0.28125,0.4375 0.70313,0.6875 0.4375,0.25 1.04687,0.25 0.75,0 1.21875,-0.3125 0.46875,-0.32813 0.75,-0.875 V 201.306 q -0.28125,-0.53125 -0.76562,-0.84375 -0.46875,-0.32813 -1.1875,-0.32813 -0.60938,0 -1.04688,0.25 -0.42187,0.25 -0.70312,0.70313 -0.28125,0.45312 -0.42188,1.04687 -0.125,0.57813 -0.125,1.25 z m 15.60181,4.8125 q -0.0937,-0.1875 -0.15625,-0.42187 -0.0625,-0.25 -0.10938,-0.53125 -0.21875,0.23437 -0.51562,0.4375 -0.28125,0.20312 -0.64063,0.35937 -0.34375,0.15625 -0.75,0.25 -0.40625,0.0937 -0.85937,0.0937 -0.79688,0 -1.4375,-0.21875 -0.625,-0.23437 -1.07813,-0.625 -0.4375,-0.40625 -0.6875,-0.9375 -0.25,-0.53125 -0.25,-1.17187 0,-1.57813 1.17188,-2.40625 1.1875,-0.84375 3.39062,-0.84375 h 1.59375 v -0.65625 q 0,-0.78125 -0.53125,-1.23438 -0.51562,-0.46875 -1.48437,-0.46875 -0.4375,0 -0.76563,0.10938 -0.32812,0.10937 -0.54687,0.29687 -0.21875,0.17188 -0.32813,0.42188 -0.10937,0.23437 -0.10937,0.53125 h -2.17188 q 0,-0.57813 0.26563,-1.125 0.26562,-0.54688 0.78125,-0.96875 0.51562,-0.42188 1.26562,-0.67188 0.76563,-0.25 1.71875,-0.25 0.875,0 1.625,0.21875 0.75,0.20313 1.29688,0.625 0.54687,0.42188 0.85937,1.0625 0.3125,0.625 0.3125,1.46875 v 4.39063 q 0,0.65625 0.0937,1.1875 0.0937,0.53125 0.26563,0.92187 v 0.15625 z m -2.625,-1.57812 q 0.42187,0 0.78125,-0.0937 0.375,-0.10938 0.67187,-0.28125 0.29688,-0.17188 0.5,-0.39063 0.21875,-0.21875 0.34375,-0.4375 v -1.85937 h -1.375 q -1.32812,0 -1.96875,0.4375 -0.64062,0.42187 -0.64062,1.21875 0,0.29687 0.0937,0.5625 0.10937,0.25 0.3125,0.4375 0.21875,0.1875 0.53125,0.29687 0.3125,0.10938 0.75,0.10938 z m 11.89868,-10.67188 v 2.39063 h 3.71875 v 1.625 h -3.71875 v 4.73437 q 0,0.54688 0.125,0.92188 0.14062,0.35937 0.375,0.57812 0.23437,0.21875 0.54687,0.3125 0.32813,0.0781 0.70313,0.0781 0.28125,0 0.57812,-0.0312 0.3125,-0.0312 0.59375,-0.0781 0.29688,-0.0469 0.53125,-0.0937 0.25,-0.0469 0.40625,-0.0937 l 0.25,1.5 q -0.23437,0.14063 -0.57812,0.26563 -0.32813,0.10937 -0.71875,0.17187 -0.39063,0.0781 -0.8125,0.10938 -0.42188,0.0469 -0.82813,0.0469 -0.73437,0 -1.35937,-0.20312 -0.60938,-0.20313 -1.0625,-0.625 -0.4375,-0.4375 -0.6875,-1.10938 -0.25,-0.6875 -0.25,-1.64062 v -4.84375 h -2.40625 v -1.625 h 2.40625 v -2.39063 z m 13.11743,12.25 q -0.0937,-0.1875 -0.15625,-0.42187 -0.0625,-0.25 -0.10937,-0.53125 -0.21875,0.23437 -0.51563,0.4375 -0.28125,0.20312 -0.64062,0.35937 -0.34375,0.15625 -0.75,0.25 -0.40625,0.0937 -0.85938,0.0937 -0.79687,0 -1.4375,-0.21875 -0.625,-0.23437 -1.07812,-0.625 -0.4375,-0.40625 -0.6875,-0.9375 -0.25,-0.53125 -0.25,-1.17187 0,-1.57813 1.17187,-2.40625 1.1875,-0.84375 3.39063,-0.84375 h 1.59375 v -0.65625 q 0,-0.78125 -0.53125,-1.23438 -0.51563,-0.46875 -1.48438,-0.46875 -0.4375,0 -0.76562,0.10938 -0.32813,0.10937 -0.54688,0.29687 -0.21875,0.17188 -0.32812,0.42188 -0.10938,0.23437 -0.10938,0.53125 h -2.17187 q 0,-0.57813 0.26562,-1.125 0.26563,-0.54688 0.78125,-0.96875 0.51563,-0.42188 1.26563,-0.67188 0.76562,-0.25 1.71875,-0.25 0.875,0 1.625,0.21875 0.75,0.20313 1.29687,0.625 0.54688,0.42188 0.85938,1.0625 0.3125,0.625 0.3125,1.46875 v 4.39063 q 0,0.65625 0.0937,1.1875 0.0937,0.53125 0.26562,0.92187 v 0.15625 z m -2.625,-1.57812 q 0.42188,0 0.78125,-0.0937 0.375,-0.10938 0.67188,-0.28125 0.29687,-0.17188 0.5,-0.39063 0.21875,-0.21875 0.34375,-0.4375 v -1.85937 h -1.375 q -1.32813,0 -1.96875,0.4375 -0.64063,0.42187 -0.64063,1.21875 0,0.29687 0.0937,0.5625 0.10938,0.25 0.3125,0.4375 0.21875,0.1875 0.53125,0.29687 0.3125,0.10938 0.75,0.10938 z"
       id="path51"
       inkscape:connector-curvature="0"
       style="fill:#000000;fill-rule:nonzero" />
    <path
       d="M 338.61942,239.71654 450.8714,261.13385"
       id="path53"
       inkscape:connector-curvature="0"
       style="fill:#000000;fill-opacity:0;fill-rule:evenodd" />
    <path
       d="M 338.61942,239.71654 450.8714,261.13385"
       id="path55"
       inkscape:connector-curvature="0"
       style="fill-rule:evenodd;stroke:#000000;stroke-width:1;stroke-linecap:butt;stroke-linejoin:round" />
    <path
       d="M 576.895,239.71654 450.87925,261.13385"
       id="path57"
       inkscape:connector-curvature="0"
       style="fill:#000000;fill-opacity:0;fill-rule:evenodd" />
    <path
       d="M 576.895,239.71654 450.87925,261.13385"
       id="path59"
       inkscape:connector-curvature="0"
       style="fill-rule:evenodd;stroke:#000000;stroke-width:1;stroke-linecap:butt;stroke-linejoin:round" />
    <path
       d="M 120.34646,330.50394 H 340.69552 V 450.87403 H 120.34646 Z"
       id="path61"
       inkscape:connector-curvature="0"
       style="fill:#cfe2f3;fill-rule:evenodd" />
    <path
       d="M 120.34646,330.50394 H 340.69552 V 450.87403 H 120.34646 Z"
       id="path63"
       inkscape:connector-curvature="0"
       style="fill-rule:evenodd;stroke:#000000;stroke-width:1;stroke-linecap:butt;stroke-linejoin:round" />
    <path
       d="m 199.90292,357.42395 v -10.25 l -4.40625,7.85937 h -0.95313 l -4.42187,-7.85937 v 10.25 h -1.6875 v -13.25 h 1.78125 l 4.79687,8.60937 4.8125,-8.60937 h 1.75 v 13.25 z m 6.99348,0.1875 q -0.6875,0 -1.29687,-0.23438 -0.59375,-0.23437 -1.03125,-0.64062 -0.4375,-0.40625 -0.6875,-0.95313 -0.25,-0.5625 -0.25,-1.21875 0,-0.67187 0.29687,-1.21875 0.29688,-0.54687 0.84375,-0.9375 0.54688,-0.39062 1.29688,-0.60937 0.76562,-0.23438 1.67187,-0.23438 0.70313,0 1.42188,0.14063 0.73437,0.125 1.29687,0.34375 v -0.78125 q 0,-1.1875 -0.67187,-1.875 -0.67188,-0.6875 -1.90625,-0.6875 -1.46875,0 -3.09375,1.14062 l -0.54688,-1.0625 q 1.89063,-1.26562 3.79688,-1.26562 1.92187,0 2.98437,1.03125 1.07813,1.01562 1.07813,2.89062 v 3.96875 q 0,0.57813 0.51562,0.59375 v 1.42188 q -0.25,0.0312 -0.42187,0.0469 -0.17188,0.0312 -0.35938,0.0312 -0.48437,0 -0.78125,-0.28125 -0.28125,-0.29687 -0.32812,-0.71875 l -0.0469,-0.6875 q -0.65625,0.875 -1.65625,1.34375 -0.98437,0.45313 -2.125,0.45313 z m 0.42188,-1.23438 q 0.875,0 1.625,-0.32812 0.76562,-0.32813 1.15625,-0.85938 0.35937,-0.35937 0.35937,-0.73437 v -1.4375 q -1.20312,-0.46875 -2.48437,-0.46875 -1.23438,0 -2.01563,0.53125 -0.76562,0.51562 -0.76562,1.35937 0,0.40625 0.15625,0.76563 0.15625,0.35937 0.4375,0.625 0.29687,0.25 0.6875,0.40625 0.40625,0.14062 0.84375,0.14062 z m 6.75745,-3.84375 q 0,-1.01562 0.34375,-1.9375 0.35937,-0.92187 1.01562,-1.59375 0.65625,-0.6875 1.5625,-1.07812 0.90625,-0.40625 2.01563,-0.40625 1.46875,0 2.51562,0.64062 1.04688,0.64063 1.59375,1.73438 l -1.60937,0.5 q -0.35938,-0.6875 -1.03125,-1.0625 -0.67188,-0.39063 -1.5,-0.39063 -0.67188,0 -1.26563,0.26563 -0.59375,0.26562 -1.03125,0.75 -0.42187,0.48437 -0.6875,1.14062 -0.25,0.65625 -0.25,1.4375 0,0.76563 0.26563,1.4375 0.26562,0.67188 0.70312,1.17188 0.4375,0.48437 1.01563,0.76562 0.59375,0.28125 1.26562,0.28125 0.4375,0 0.84375,-0.10937 0.42188,-0.125 0.76563,-0.32813 0.35937,-0.21875 0.60937,-0.48437 0.26563,-0.26563 0.375,-0.59375 l 1.60938,0.5 q -0.21875,0.53125 -0.625,0.98437 -0.40625,0.4375 -0.95313,0.76563 -0.53125,0.3125 -1.20312,0.5 -0.65625,0.1875 -1.375,0.1875 -1.10938,0 -2.03125,-0.40625 -0.90625,-0.42188 -1.5625,-1.10938 -0.64063,-0.6875 -1.01563,-1.60937 -0.35937,-0.92188 -0.35937,-1.95313 z m 19.44494,4.89063 h -1.64062 v -5.45313 q 0,-1.5 -0.53125,-2.23437 -0.51563,-0.75 -1.53125,-0.75 -0.48438,0 -0.96875,0.20312 -0.48438,0.1875 -0.90625,0.53125 -0.42188,0.32813 -0.75,0.79688 -0.3125,0.46875 -0.48438,1.03125 v 5.875 h -1.64062 v -13.625 h 1.64062 v 5.96875 q 0.57813,-1.0625 1.5625,-1.65625 0.98438,-0.59375 2.17188,-0.59375 0.85937,0 1.45312,0.32812 0.59375,0.3125 0.9375,0.85938 0.35938,0.53125 0.51563,1.29687 0.17187,0.75 0.17187,1.59375 z m 2.55406,0 v -9.73438 h 1.64063 v 9.73438 z m 0,-11.5625 v -2.0625 h 1.64063 v 2.0625 z m 12.74407,11.5625 h -1.64063 v -5.45313 q 0,-1.5625 -0.48437,-2.26562 -0.46875,-0.71875 -1.4375,-0.71875 -0.51563,0 -1.01563,0.20312 -0.5,0.1875 -0.95312,0.53125 -0.4375,0.32813 -0.78125,0.79688 -0.32813,0.46875 -0.5,1.03125 v 5.875 h -1.64063 v -9.73438 h 1.48438 v 2.07813 q 0.57812,-1.01563 1.67187,-1.625 1.09375,-0.625 2.375,-0.625 0.84375,0 1.40625,0.3125 0.5625,0.29687 0.89063,0.85937 0.34375,0.54688 0.48437,1.29688 0.14063,0.73437 0.14063,1.60937 z m 6.86656,0.1875 q -1.10938,0 -2.03125,-0.39063 -0.90625,-0.40625 -1.5625,-1.09375 -0.64063,-0.70312 -1.01563,-1.625 -0.35937,-0.92187 -0.35937,-1.95312 0,-1.01563 0.35937,-1.92188 0.375,-0.92187 1.03125,-1.60937 0.65625,-0.70313 1.5625,-1.09375 0.92188,-0.40625 2.03125,-0.40625 1.09375,0 2,0.42187 0.90625,0.40625 1.53125,1.09375 0.64063,0.67188 0.98438,1.57813 0.34375,0.90625 0.34375,1.875 0,0.20312 -0.0156,0.375 0,0.15625 -0.0156,0.25 h -8.07813 q 0.0625,0.73437 0.32813,1.32812 0.28125,0.59375 0.73437,1.03125 0.45313,0.42188 1.01563,0.67188 0.57812,0.23437 1.20312,0.23437 0.45313,0 0.875,-0.10937 0.4375,-0.125 0.8125,-0.32813 0.375,-0.21875 0.65625,-0.51562 0.29688,-0.29688 0.4375,-0.67188 l 1.42188,0.39063 q -0.25,0.54687 -0.67188,1 -0.40625,0.4375 -0.96875,0.76562 -0.54687,0.32813 -1.21875,0.51563 -0.67187,0.1875 -1.39062,0.1875 z m 3.32812,-5.70313 q -0.0469,-0.70312 -0.34375,-1.28125 -0.28125,-0.59375 -0.71875,-1 -0.4375,-0.40625 -1.01562,-0.64062 -0.57813,-0.23438 -1.23438,-0.23438 -0.65625,0 -1.23437,0.23438 -0.57813,0.23437 -1.01563,0.65625 -0.4375,0.40625 -0.71875,0.98437 -0.26562,0.57813 -0.3125,1.28125 z m 14.73026,4.01563 v 1.5 h -6.70313 v -1.5 h 2.65625 v -7.26563 q -0.17187,0.21875 -0.53125,0.46875 -0.35937,0.25 -0.79687,0.46875 -0.4375,0.21875 -0.90625,0.375 -0.45313,0.14063 -0.8125,0.14063 v -1.5625 q 0.40625,0 0.90625,-0.23438 0.51562,-0.23437 0.96875,-0.54687 0.45312,-0.3125 0.78125,-0.59375 0.32812,-0.29688 0.39062,-0.40625 h 1.67188 v 9.15625 z"
       id="path65"
       inkscape:connector-curvature="0"
       style="fill:#000000;fill-rule:nonzero" />
    <path
       d="m 126.97769,382.99213 v 0 c 0,-6.38678 22.1478,-11.5643 49.46851,-11.5643 27.32069,0 49.4685,5.17752 49.4685,11.5643 v 46.2572 c 0,6.38681 -22.14781,11.56433 -49.4685,11.56433 -27.32071,0 -49.46851,-5.17752 -49.46851,-11.56433 z"
       id="path67"
       inkscape:connector-curvature="0"
       style="fill:#f4cccc;fill-rule:evenodd" />
    <path
       d="m 225.9147,382.99213 v 0 c 0,6.38678 -22.14781,11.5643 -49.46851,11.5643 -27.32071,0 -49.4685,-5.17752 -49.4685,-11.5643"
       id="path69"
       inkscape:connector-curvature="0"
       style="fill:#000000;fill-opacity:0;fill-rule:evenodd" />
    <path
       d="m 126.97769,382.99213 v 0 c 0,-6.38678 22.1478,-11.5643 49.46851,-11.5643 27.32069,0 49.4685,5.17752 49.4685,11.5643 v 46.2572 c 0,6.38681 -22.14781,11.56433 -49.4685,11.56433 -27.32071,0 -49.46851,-5.17752 -49.46851,-11.56433 z"
       id="path71"
       inkscape:connector-curvature="0"
       style="fill:#000000;fill-opacity:0;fill-rule:evenodd" />
    <path
       d="m 225.9147,382.99213 v 0 c 0,6.38678 -22.14781,11.5643 -49.46851,11.5643 -27.32071,0 -49.4685,-5.17752 -49.4685,-11.5643"
       id="path73"
       inkscape:connector-curvature="0"
       style="fill-rule:evenodd;stroke:#000000;stroke-width:1;stroke-linecap:butt;stroke-linejoin:round" />
    <path
       d="m 126.97769,382.99213 v 0 c 0,-6.38678 22.1478,-11.5643 49.46851,-11.5643 27.32069,0 49.4685,5.17752 49.4685,11.5643 v 46.2572 c 0,6.38681 -22.14781,11.56433 -49.4685,11.56433 -27.32071,0 -49.46851,-5.17752 -49.46851,-11.56433 z"
       id="path75"
       inkscape:connector-curvature="0"
       style="fill-rule:evenodd;stroke:#000000;stroke-width:1;stroke-linecap:butt;stroke-linejoin:round" />
    <path
       d="m 139.24332,418.74725 h -1.29688 l 4.75,-12.35938 h 1.29688 z m 11.11719,-11.48438 v 2.04688 h 3.21875 v 1.10937 h -3.21875 v 4.59375 q 0,0.5 0.125,0.82813 0.125,0.3125 0.34375,0.5 0.21875,0.1875 0.5,0.26562 0.29687,0.0781 0.60937,0.0781 0.23438,0 0.48438,-0.0156 0.25,-0.0312 0.48437,-0.0625 0.25,-0.0469 0.45313,-0.0937 0.20312,-0.0469 0.34375,-0.0781 l 0.20312,1.03125 q -0.1875,0.10937 -0.45312,0.1875 -0.25,0.0781 -0.5625,0.14062 -0.29688,0.0625 -0.64063,0.0937 -0.32812,0.0312 -0.67187,0.0312 -0.5625,0 -1.04688,-0.15625 -0.48437,-0.17187 -0.84375,-0.51562 -0.35937,-0.34375 -0.57812,-0.89063 -0.20313,-0.5625 -0.20313,-1.34375 v -4.59375 h -2.21875 v -1.10937 h 2.21875 v -2.04688 z m 6.85156,2.04688 0.0312,0.79687 q 0.26562,-0.45312 0.67187,-0.70312 0.42188,-0.25 1.01563,-0.25 1.17187,0 1.5625,0.90625 0.25,-0.40625 0.65625,-0.65625 0.40625,-0.25 1,-0.25 0.92187,0 1.42187,0.57812 0.5,0.5625 0.5,1.71875 v 6.3125 h -1.375 v -6.32812 q 0,-1.0625 -0.96875,-1.0625 -0.26562,0 -0.45312,0.0781 -0.1875,0.0625 -0.3125,0.1875 -0.125,0.125 -0.20313,0.28125 -0.0625,0.15625 -0.0781,0.32813 v 6.51562 h -1.375 v -6.34375 q 0,-0.5 -0.23438,-0.76562 -0.21875,-0.28125 -0.71875,-0.28125 -0.45312,0 -0.70312,0.1875 -0.25,0.17187 -0.35938,0.46875 v 6.73437 h -1.375 v -8.45312 z m 16.07031,4.3125 q 0,0.90625 -0.21875,1.70312 -0.21875,0.78125 -0.64062,1.35938 -0.42188,0.57812 -1.04688,0.90625 -0.625,0.32812 -1.42187,0.32812 -0.76563,0 -1.35938,-0.25 -0.59375,-0.25 -1.01562,-0.71875 v 4.0625 h -1.4375 v -11.70312 h 1.3125 l 0.0781,0.92187 q 0.42188,-0.53125 1.01563,-0.79687 0.59375,-0.28125 1.39062,-0.28125 0.8125,0 1.4375,0.32812 0.625,0.3125 1.04688,0.89063 0.42187,0.5625 0.64062,1.35937 0.21875,0.78125 0.21875,1.73438 z m -1.45312,-0.15625 q 0,-0.625 -0.14063,-1.17188 -0.125,-0.5625 -0.42187,-0.98437 -0.28125,-0.4375 -0.71875,-0.6875 -0.4375,-0.25 -1.04688,-0.25 -0.6875,0 -1.17187,0.32812 -0.46875,0.32813 -0.75,0.82813 v 4.07812 q 0.28125,0.5 0.75,0.8125 0.46875,0.3125 1.1875,0.3125 0.60937,0 1.04687,-0.25 0.4375,-0.25 0.71875,-0.67187 0.28125,-0.4375 0.40625,-1 0.14063,-0.5625 0.14063,-1.1875 z"
       id="path77"
       inkscape:connector-curvature="0"
       style="fill:#000000;fill-rule:nonzero" />
    <path
       d="m 235.1273,382.99213 v 0 c 0,-6.38678 22.14778,-11.5643 49.46849,-11.5643 27.32071,0 49.46851,5.17752 49.46851,11.5643 v 46.2572 c 0,6.38681 -22.1478,11.56433 -49.46851,11.56433 -27.32071,0 -49.46849,-5.17752 -49.46849,-11.56433 z"
       id="path79"
       inkscape:connector-curvature="0"
       style="fill:#ffe599;fill-rule:evenodd" />
    <path
       d="m 334.0643,382.99213 v 0 c 0,6.38678 -22.1478,11.5643 -49.46851,11.5643 -27.32071,0 -49.46849,-5.17752 -49.46849,-11.5643"
       id="path81"
       inkscape:connector-curvature="0"
       style="fill:#000000;fill-opacity:0;fill-rule:evenodd" />
    <path
       d="m 235.1273,382.99213 v 0 c 0,-6.38678 22.14778,-11.5643 49.46849,-11.5643 27.32071,0 49.46851,5.17752 49.46851,11.5643 v 46.2572 c 0,6.38681 -22.1478,11.56433 -49.46851,11.56433 -27.32071,0 -49.46849,-5.17752 -49.46849,-11.56433 z"
       id="path83"
       inkscape:connector-curvature="0"
       style="fill:#000000;fill-opacity:0;fill-rule:evenodd" />
    <path
       d="m 334.0643,382.99213 v 0 c 0,6.38678 -22.1478,11.5643 -49.46851,11.5643 -27.32071,0 -49.46849,-5.17752 -49.46849,-11.5643"
       id="path85"
       inkscape:connector-curvature="0"
       style="fill-rule:evenodd;stroke:#000000;stroke-width:1;stroke-linecap:butt;stroke-linejoin:round" />
    <path
       d="m 235.1273,382.99213 v 0 c 0,-6.38678 22.14778,-11.5643 49.46849,-11.5643 27.32071,0 49.46851,5.17752 49.46851,11.5643 v 46.2572 c 0,6.38681 -22.1478,11.56433 -49.46851,11.56433 -27.32071,0 -49.46849,-5.17752 -49.46849,-11.56433 z"
       id="path87"
       inkscape:connector-curvature="0"
       style="fill-rule:evenodd;stroke:#000000;stroke-width:1;stroke-linecap:butt;stroke-linejoin:round" />
    <path
       d="m 247.39293,418.74725 h -1.29688 l 4.75,-12.35938 h 1.29688 z m 13.3203,-3.23438 q 0,-0.25 -0.10938,-0.45312 -0.0937,-0.21875 -0.34375,-0.39063 -0.23437,-0.17187 -0.64062,-0.3125 -0.39063,-0.14062 -0.98438,-0.26562 -0.73437,-0.14063 -1.32812,-0.34375 -0.59375,-0.21875 -1.03125,-0.51563 -0.42186,-0.29687 -0.65624,-0.6875 -0.23437,-0.39062 -0.23437,-0.92187 0,-0.51563 0.23437,-0.95313 0.25,-0.45312 0.68749,-0.78125 0.4375,-0.34375 1.04687,-0.53125 0.60938,-0.20312 1.32813,-0.20312 0.78125,0 1.40625,0.20312 0.625,0.20313 1.0625,0.5625 0.4375,0.35938 0.67187,0.84375 0.25,0.46875 0.25,1.03125 h -1.45312 q 0,-0.28125 -0.14063,-0.53125 -0.14062,-0.26562 -0.39062,-0.46875 -0.25,-0.20312 -0.60938,-0.32812 -0.34375,-0.125 -0.79687,-0.125 -0.45313,0 -0.8125,0.10937 -0.34375,0.0937 -0.57813,0.26563 -0.21875,0.17187 -0.34375,0.40625 -0.10937,0.21875 -0.10937,0.45312 0,0.25 0.0937,0.45313 0.0937,0.1875 0.3125,0.34375 0.23437,0.15625 0.625,0.28125 0.39062,0.125 0.98437,0.25 0.78125,0.15625 1.39063,0.375 0.625,0.21875 1.04687,0.51562 0.42188,0.29688 0.64063,0.70313 0.21875,0.39062 0.21875,0.92187 0,0.5625 -0.25,1.03125 -0.25,0.45313 -0.70313,0.78125 -0.45312,0.32813 -1.09375,0.51563 -0.625,0.17187 -1.375,0.17187 -0.85937,0 -1.53125,-0.23437 -0.67187,-0.23438 -1.14062,-0.60938 -0.46874,-0.375 -0.71874,-0.875 -0.23437,-0.5 -0.23437,-1.04687 h 1.43748 q 0.0312,0.45312 0.23438,0.76562 0.21875,0.29688 0.51562,0.48438 0.3125,0.1875 0.6875,0.26562 0.375,0.0781 0.75,0.0781 0.90625,0 1.4375,-0.32813 0.53125,-0.34375 0.54688,-0.90625 z m 7.58593,1.23438 q 0.39063,0 0.75,-0.125 0.375,-0.125 0.65625,-0.34375 0.29688,-0.23438 0.46875,-0.53125 0.1875,-0.29688 0.1875,-0.65625 h 1.375 q -0.0156,0.5625 -0.29687,1.07812 -0.28125,0.51563 -0.76563,0.90625 -0.46875,0.375 -1.09375,0.60938 -0.60937,0.23437 -1.28125,0.23437 -0.96875,0 -1.6875,-0.34375 -0.71875,-0.34375 -1.20312,-0.92187 -0.46875,-0.59375 -0.71875,-1.34375 -0.23438,-0.76563 -0.23438,-1.60938 v -0.32812 q 0,-0.84375 0.23438,-1.60938 0.25,-0.76562 0.71875,-1.34375 0.48437,-0.57812 1.20312,-0.92187 0.71875,-0.34375 1.6875,-0.34375 0.75,0 1.375,0.23437 0.625,0.23438 1.07813,0.65625 0.46875,0.40625 0.71875,0.96875 0.26562,0.5625 0.26562,1.20313 h -1.375 q 0,-0.39063 -0.17187,-0.71875 -0.15625,-0.34375 -0.4375,-0.59375 -0.26563,-0.26563 -0.64063,-0.40625 -0.375,-0.15625 -0.8125,-0.15625 -0.67187,0 -1.14062,0.26562 -0.45313,0.26563 -0.73438,0.70313 -0.28125,0.4375 -0.40625,0.98437 -0.10937,0.53125 -0.10937,1.07813 v 0.32812 q 0,0.54688 0.10937,1.09375 0.125,0.54688 0.40625,0.98438 0.28125,0.42187 0.73438,0.70312 0.45312,0.26563 1.14062,0.26563 z m 11.53907,-7.59375 q 0.20312,0 0.42187,0.0156 0.21875,0 0.40625,0.0312 0.20313,0.0312 0.375,0.0781 0.17188,0.0312 0.28125,0.0781 l -0.20312,1.40625 q -0.42188,-0.0937 -0.79688,-0.125 -0.375,-0.0469 -0.79687,-0.0469 -1.01563,0 -1.64063,0.46875 -0.625,0.45312 -0.92187,1.28125 v 5.42187 h -1.45313 v -8.45312 h 1.375 l 0.0625,1.34375 q 0.51563,-0.70313 1.23438,-1.09375 0.73437,-0.40625 1.65625,-0.40625 z m 9.61718,8.60937 q -0.0937,-0.17187 -0.14062,-0.40625 -0.0469,-0.25 -0.0781,-0.51562 -0.21875,0.21875 -0.48437,0.42187 -0.26563,0.1875 -0.59375,0.34375 -0.32813,0.14063 -0.70313,0.21875 -0.35937,0.0937 -0.76562,0.0937 -0.67188,0 -1.21875,-0.1875 -0.54688,-0.20312 -0.92188,-0.53125 -0.375,-0.34375 -0.59375,-0.79687 -0.20312,-0.45313 -0.20312,-0.98438 0,-0.70312 0.28125,-1.21875 0.28125,-0.53125 0.78125,-0.875 0.51562,-0.34375 1.21875,-0.51562 0.71875,-0.17188 1.60937,-0.17188 h 1.57813 V 411.966 q 0,-0.375 -0.14063,-0.67188 -0.14062,-0.3125 -0.40625,-0.53125 -0.25,-0.21875 -0.625,-0.32812 -0.375,-0.125 -0.82812,-0.125 -0.4375,0 -0.78125,0.10937 -0.32813,0.10938 -0.5625,0.29688 -0.23438,0.17187 -0.375,0.42187 -0.125,0.25 -0.125,0.51563 h -1.45313 q 0.0156,-0.46875 0.23438,-0.90625 0.23437,-0.45313 0.67187,-0.79688 0.4375,-0.35937 1.04688,-0.57812 0.625,-0.21875 1.42187,-0.21875 0.71875,0 1.32813,0.17187 0.625,0.17188 1.0625,0.53125 0.45312,0.35938 0.70312,0.89063 0.26563,0.53125 0.26563,1.23437 v 3.9375 q 0,0.42188 0.0781,0.89063 0.0781,0.46875 0.21875,0.82812 v 0.125 z m -2.5625,-1.10937 q 0.42188,0 0.78125,-0.10938 0.375,-0.10937 0.67188,-0.28125 0.3125,-0.1875 0.53125,-0.40625 0.21875,-0.23437 0.34375,-0.48437 v -1.71875 h -1.34375 q -1.26563,0 -1.96875,0.375 -0.70313,0.375 -0.70313,1.1875 0,0.3125 0.0937,0.57812 0.10938,0.26563 0.3125,0.45313 0.21875,0.1875 0.53125,0.29687 0.32813,0.10938 0.75,0.10938 z m 10.02344,-9.39063 v 2.04688 h 3.21875 v 1.10937 h -3.21875 v 4.59375 q 0,0.5 0.125,0.82813 0.125,0.3125 0.34375,0.5 0.21875,0.1875 0.5,0.26562 0.29688,0.0781 0.60938,0.0781 0.23437,0 0.48437,-0.0156 0.25,-0.0312 0.48438,-0.0625 0.25,-0.0469 0.45312,-0.0937 0.20313,-0.0469 0.34375,-0.0781 l 0.20313,1.03125 q -0.1875,0.10937 -0.45313,0.1875 -0.25,0.0781 -0.5625,0.14062 -0.29687,0.0625 -0.64062,0.0937 -0.32813,0.0312 -0.67188,0.0312 -0.5625,0 -1.04687,-0.15625 -0.48438,-0.17187 -0.84375,-0.51562 -0.35938,-0.34375 -0.57813,-0.89063 -0.20312,-0.5625 -0.20312,-1.34375 v -4.59375 h -2.21875 v -1.10937 h 2.21875 v -2.04688 z m 9.78906,9.48438 q 0.39063,0 0.75,-0.125 0.375,-0.125 0.65625,-0.34375 0.29688,-0.23438 0.46875,-0.53125 0.1875,-0.29688 0.1875,-0.65625 h 1.375 q -0.0156,0.5625 -0.29687,1.07812 -0.28125,0.51563 -0.76563,0.90625 -0.46875,0.375 -1.09375,0.60938 -0.60937,0.23437 -1.28125,0.23437 -0.96875,0 -1.6875,-0.34375 -0.71875,-0.34375 -1.20312,-0.92187 -0.46875,-0.59375 -0.71875,-1.34375 -0.23438,-0.76563 -0.23438,-1.60938 v -0.32812 q 0,-0.84375 0.23438,-1.60938 0.25,-0.76562 0.71875,-1.34375 0.48437,-0.57812 1.20312,-0.92187 0.71875,-0.34375 1.6875,-0.34375 0.75,0 1.375,0.23437 0.625,0.23438 1.07813,0.65625 0.46875,0.40625 0.71875,0.96875 0.26562,0.5625 0.26562,1.20313 h -1.375 q 0,-0.39063 -0.17187,-0.71875 -0.15625,-0.34375 -0.4375,-0.59375 -0.26563,-0.26563 -0.64063,-0.40625 -0.375,-0.15625 -0.8125,-0.15625 -0.67187,0 -1.14062,0.26562 -0.45313,0.26563 -0.73438,0.70313 -0.28125,0.4375 -0.40625,0.98437 -0.10937,0.53125 -0.10937,1.07813 v 0.32812 q 0,0.54688 0.10937,1.09375 0.125,0.54688 0.40625,0.98438 0.28125,0.42187 0.73438,0.70312 0.45312,0.26563 1.14062,0.26563 z m 7.44532,-6.1875 q 0.45312,-0.65625 1.10937,-1.03125 0.67188,-0.375 1.5,-0.375 0.65625,0 1.20313,0.1875 0.54687,0.1875 0.92187,0.59375 0.39063,0.40625 0.59375,1.03125 0.20313,0.625 0.20313,1.46875 v 5.32812 h -1.4375 v -5.34375 q 0,-1.03125 -0.5,-1.53125 -0.5,-0.51562 -1.42188,-0.51562 -0.6875,0 -1.26562,0.34375 -0.5625,0.34375 -0.90625,0.90625 v 6.14062 h -1.45313 v -12 h 1.45313 z"
       id="path89"
       inkscape:connector-curvature="0"
       style="fill:#000000;fill-rule:nonzero" />
    <path
       d="M 561.042,330.50394 H 781.39106 V 450.87403 H 561.042 Z"
       id="path91"
       inkscape:connector-curvature="0"
       style="fill:#cfe2f3;fill-rule:evenodd" />
    <path
       d="M 561.042,330.50394 H 781.39106 V 450.87403 H 561.042 Z"
       id="path93"
       inkscape:connector-curvature="0"
       style="fill-rule:evenodd;stroke:#000000;stroke-width:1;stroke-linecap:butt;stroke-linejoin:round" />
    <path
       d="m 639.8056,357.42395 v -10.25 l -4.40625,7.85937 h -0.95312 l -4.42188,-7.85937 v 10.25 h -1.6875 v -13.25 h 1.78125 l 4.79688,8.60937 4.8125,-8.60937 h 1.75 v 13.25 z m 6.99347,0.1875 q -0.6875,0 -1.29688,-0.23438 -0.59375,-0.23437 -1.03125,-0.64062 -0.4375,-0.40625 -0.6875,-0.95313 -0.25,-0.5625 -0.25,-1.21875 0,-0.67187 0.29688,-1.21875 0.29687,-0.54687 0.84375,-0.9375 0.54687,-0.39062 1.29687,-0.60937 0.76563,-0.23438 1.67188,-0.23438 0.70312,0 1.42187,0.14063 0.73438,0.125 1.29688,0.34375 v -0.78125 q 0,-1.1875 -0.67188,-1.875 -0.67187,-0.6875 -1.90625,-0.6875 -1.46875,0 -3.09375,1.14062 l -0.54687,-1.0625 q 1.89062,-1.26562 3.79687,-1.26562 1.92188,0 2.98438,1.03125 1.07812,1.01562 1.07812,2.89062 v 3.96875 q 0,0.57813 0.51563,0.59375 v 1.42188 q -0.25,0.0312 -0.42188,0.0469 -0.17187,0.0312 -0.35937,0.0312 -0.48438,0 -0.78125,-0.28125 -0.28125,-0.29687 -0.32813,-0.71875 l -0.0469,-0.6875 q -0.65625,0.875 -1.65625,1.34375 -0.98438,0.45313 -2.125,0.45313 z m 0.42187,-1.23438 q 0.875,0 1.625,-0.32812 0.76563,-0.32813 1.15625,-0.85938 0.35938,-0.35937 0.35938,-0.73437 v -1.4375 q -1.20313,-0.46875 -2.48438,-0.46875 -1.23437,0 -2.01562,0.53125 -0.76563,0.51562 -0.76563,1.35937 0,0.40625 0.15625,0.76563 0.15625,0.35937 0.4375,0.625 0.29688,0.25 0.6875,0.40625 0.40625,0.14062 0.84375,0.14062 z m 6.75745,-3.84375 q 0,-1.01562 0.34375,-1.9375 0.35938,-0.92187 1.01563,-1.59375 0.65625,-0.6875 1.5625,-1.07812 0.90625,-0.40625 2.01562,-0.40625 1.46875,0 2.51563,0.64062 1.04687,0.64063 1.59375,1.73438 l -1.60938,0.5 q -0.35937,-0.6875 -1.03125,-1.0625 -0.67187,-0.39063 -1.5,-0.39063 -0.67187,0 -1.26562,0.26563 -0.59375,0.26562 -1.03125,0.75 -0.42188,0.48437 -0.6875,1.14062 -0.25,0.65625 -0.25,1.4375 0,0.76563 0.26562,1.4375 0.26563,0.67188 0.70313,1.17188 0.4375,0.48437 1.01562,0.76562 0.59375,0.28125 1.26563,0.28125 0.4375,0 0.84375,-0.10937 0.42187,-0.125 0.76562,-0.32813 0.35938,-0.21875 0.60938,-0.48437 0.26562,-0.26563 0.375,-0.59375 l 1.60937,0.5 q -0.21875,0.53125 -0.625,0.98437 -0.40625,0.4375 -0.95312,0.76563 -0.53125,0.3125 -1.20313,0.5 -0.65625,0.1875 -1.375,0.1875 -1.10937,0 -2.03125,-0.40625 -0.90625,-0.42188 -1.5625,-1.10938 -0.64062,-0.6875 -1.01562,-1.60937 -0.35938,-0.92188 -0.35938,-1.95313 z m 19.44495,4.89063 h -1.64063 v -5.45313 q 0,-1.5 -0.53125,-2.23437 -0.51562,-0.75 -1.53125,-0.75 -0.48437,0 -0.96875,0.20312 -0.48437,0.1875 -0.90625,0.53125 -0.42187,0.32813 -0.75,0.79688 -0.3125,0.46875 -0.48437,1.03125 v 5.875 h -1.64063 v -13.625 h 1.64063 v 5.96875 q 0.57812,-1.0625 1.5625,-1.65625 0.98437,-0.59375 2.17187,-0.59375 0.85938,0 1.45313,0.32812 0.59375,0.3125 0.9375,0.85938 0.35937,0.53125 0.51562,1.29687 0.17188,0.75 0.17188,1.59375 z m 2.55407,0 v -9.73438 h 1.64063 v 9.73438 z m 0,-11.5625 v -2.0625 h 1.64063 v 2.0625 z m 12.74402,11.5625 h -1.64062 v -5.45313 q 0,-1.5625 -0.48438,-2.26562 -0.46875,-0.71875 -1.4375,-0.71875 -0.51562,0 -1.01562,0.20312 -0.5,0.1875 -0.95313,0.53125 -0.4375,0.32813 -0.78125,0.79688 -0.32812,0.46875 -0.5,1.03125 v 5.875 h -1.64062 v -9.73438 h 1.48437 v 2.07813 q 0.57813,-1.01563 1.67188,-1.625 1.09375,-0.625 2.375,-0.625 0.84375,0 1.40625,0.3125 0.5625,0.29687 0.89062,0.85937 0.34375,0.54688 0.48438,1.29688 0.14062,0.73437 0.14062,1.60937 z m 6.86658,0.1875 q -1.10938,0 -2.03125,-0.39063 -0.90625,-0.40625 -1.5625,-1.09375 -0.64063,-0.70312 -1.01563,-1.625 -0.35937,-0.92187 -0.35937,-1.95312 0,-1.01563 0.35937,-1.92188 0.375,-0.92187 1.03125,-1.60937 0.65625,-0.70313 1.5625,-1.09375 0.92188,-0.40625 2.03125,-0.40625 1.09375,0 2,0.42187 0.90625,0.40625 1.53125,1.09375 0.64063,0.67188 0.98438,1.57813 0.34375,0.90625 0.34375,1.875 0,0.20312 -0.0156,0.375 0,0.15625 -0.0156,0.25 h -8.07813 q 0.0625,0.73437 0.32813,1.32812 0.28125,0.59375 0.73437,1.03125 0.45313,0.42188 1.01563,0.67188 0.57812,0.23437 1.20312,0.23437 0.45313,0 0.875,-0.10937 0.4375,-0.125 0.8125,-0.32813 0.375,-0.21875 0.65625,-0.51562 0.29688,-0.29688 0.4375,-0.67188 l 1.42188,0.39063 q -0.25,0.54687 -0.67188,1 -0.40625,0.4375 -0.96875,0.76562 -0.54687,0.32813 -1.21875,0.51563 -0.67187,0.1875 -1.39062,0.1875 z m 3.32812,-5.70313 q -0.0469,-0.70312 -0.34375,-1.28125 -0.28125,-0.59375 -0.71875,-1 -0.4375,-0.40625 -1.01562,-0.64062 -0.57813,-0.23438 -1.23438,-0.23438 -0.65625,0 -1.23437,0.23438 -0.57813,0.23437 -1.01563,0.65625 -0.4375,0.40625 -0.71875,0.98437 -0.26562,0.57813 -0.3125,1.28125 z m 14.08967,-3.84375 h -6.8125 v -1.51562 h 9.40625 l -6.65625,13.25 h -1.875 z"
       id="path95"
       inkscape:connector-curvature="0"
       style="fill:#000000;fill-rule:nonzero" />
    <path
       d="m 567.6732,382.99213 v 0 c 0,-6.38678 22.14783,-11.5643 49.46851,-11.5643 27.32068,0 49.4685,5.17752 49.4685,11.5643 v 46.2572 c 0,6.38681 -22.14782,11.56433 -49.4685,11.56433 -27.32068,0 -49.46851,-5.17752 -49.46851,-11.56433 z"
       id="path97"
       inkscape:connector-curvature="0"
       style="fill:#f4cccc;fill-rule:evenodd" />
    <path
       d="m 666.6102,382.99213 v 0 c 0,6.38678 -22.14783,11.5643 -49.46851,11.5643 -27.32068,0 -49.4685,-5.17752 -49.4685,-11.5643"
       id="path99"
       inkscape:connector-curvature="0"
       style="fill:#000000;fill-opacity:0;fill-rule:evenodd" />
    <path
       d="m 567.6732,382.99213 v 0 c 0,-6.38678 22.14783,-11.5643 49.46851,-11.5643 27.32068,0 49.4685,5.17752 49.4685,11.5643 v 46.2572 c 0,6.38681 -22.14782,11.56433 -49.4685,11.56433 -27.32068,0 -49.46851,-5.17752 -49.46851,-11.56433 z"
       id="path101"
       inkscape:connector-curvature="0"
       style="fill:#000000;fill-opacity:0;fill-rule:evenodd" />
    <path
       d="m 666.6102,382.99213 v 0 c 0,6.38678 -22.14783,11.5643 -49.46851,11.5643 -27.32068,0 -49.4685,-5.17752 -49.4685,-11.5643"
       id="path103"
       inkscape:connector-curvature="0"
       style="fill-rule:evenodd;stroke:#000000;stroke-width:1;stroke-linecap:butt;stroke-linejoin:round" />
    <path
       d="m 567.6732,382.99213 v 0 c 0,-6.38678 22.14783,-11.5643 49.46851,-11.5643 27.32068,0 49.4685,5.17752 49.4685,11.5643 v 46.2572 c 0,6.38681 -22.14782,11.56433 -49.4685,11.56433 -27.32068,0 -49.46851,-5.17752 -49.46851,-11.56433 z"
       id="path105"
       inkscape:connector-curvature="0"
       style="fill-rule:evenodd;stroke:#000000;stroke-width:1;stroke-linecap:butt;stroke-linejoin:round" />
    <path
       d="m 579.93884,418.74725 h -1.29687 l 4.75,-12.35938 h 1.29687 z m 11.11719,-11.48438 v 2.04688 h 3.21875 v 1.10937 h -3.21875 v 4.59375 q 0,0.5 0.125,0.82813 0.125,0.3125 0.34375,0.5 0.21875,0.1875 0.5,0.26562 0.29687,0.0781 0.60937,0.0781 0.23438,0 0.48438,-0.0156 0.25,-0.0312 0.48437,-0.0625 0.25,-0.0469 0.45313,-0.0937 0.20312,-0.0469 0.34375,-0.0781 l 0.20312,1.03125 q -0.1875,0.10937 -0.45312,0.1875 -0.25,0.0781 -0.5625,0.14062 -0.29688,0.0625 -0.64063,0.0937 -0.32812,0.0312 -0.67187,0.0312 -0.5625,0 -1.04688,-0.15625 -0.48437,-0.17187 -0.84375,-0.51562 -0.35937,-0.34375 -0.57812,-0.89063 -0.20313,-0.5625 -0.20313,-1.34375 v -4.59375 h -2.21875 v -1.10937 h 2.21875 v -2.04688 z m 6.85156,2.04688 0.0312,0.79687 q 0.26563,-0.45312 0.67188,-0.70312 0.42187,-0.25 1.01562,-0.25 1.17188,0 1.5625,0.90625 0.25,-0.40625 0.65625,-0.65625 0.40625,-0.25 1,-0.25 0.92188,0 1.42188,0.57812 0.5,0.5625 0.5,1.71875 v 6.3125 h -1.375 v -6.32812 q 0,-1.0625 -0.96875,-1.0625 -0.26563,0 -0.45313,0.0781 -0.1875,0.0625 -0.3125,0.1875 -0.125,0.125 -0.20312,0.28125 -0.0625,0.15625 -0.0781,0.32813 v 6.51562 h -1.375 v -6.34375 q 0,-0.5 -0.23437,-0.76562 -0.21875,-0.28125 -0.71875,-0.28125 -0.45313,0 -0.70313,0.1875 -0.25,0.17187 -0.35937,0.46875 v 6.73437 h -1.375 v -8.45312 z m 16.07031,4.3125 q 0,0.90625 -0.21875,1.70312 -0.21875,0.78125 -0.64062,1.35938 -0.42188,0.57812 -1.04688,0.90625 -0.625,0.32812 -1.42187,0.32812 -0.76563,0 -1.35938,-0.25 -0.59375,-0.25 -1.01562,-0.71875 v 4.0625 h -1.4375 v -11.70312 h 1.3125 l 0.0781,0.92187 q 0.42188,-0.53125 1.01563,-0.79687 0.59375,-0.28125 1.39062,-0.28125 0.8125,0 1.4375,0.32812 0.625,0.3125 1.04688,0.89063 0.42187,0.5625 0.64062,1.35937 0.21875,0.78125 0.21875,1.73438 z m -1.45312,-0.15625 q 0,-0.625 -0.14063,-1.17188 -0.125,-0.5625 -0.42187,-0.98437 -0.28125,-0.4375 -0.71875,-0.6875 -0.4375,-0.25 -1.04688,-0.25 -0.6875,0 -1.17187,0.32812 -0.46875,0.32813 -0.75,0.82813 v 4.07812 q 0.28125,0.5 0.75,0.8125 0.46875,0.3125 1.1875,0.3125 0.60937,0 1.04687,-0.25 0.4375,-0.25 0.71875,-0.67187 0.28125,-0.4375 0.40625,-1 0.14063,-0.5625 0.14063,-1.1875 z"
       id="path107"
       inkscape:connector-curvature="0"
       style="fill:#000000;fill-rule:nonzero" />
    <path
       d="m 675.8228,382.99213 v 0 c 0,-6.38678 22.14783,-11.5643 49.46851,-11.5643 27.32074,0 49.4685,5.17752 49.4685,11.5643 v 46.2572 c 0,6.38681 -22.14776,11.56433 -49.4685,11.56433 -27.32068,0 -49.46851,-5.17752 -49.46851,-11.56433 z"
       id="path109"
       inkscape:connector-curvature="0"
       style="fill:#ffe599;fill-rule:evenodd" />
    <path
       d="m 774.7598,382.99213 v 0 c 0,6.38678 -22.14777,11.5643 -49.46851,11.5643 -27.32068,0 -49.4685,-5.17752 -49.4685,-11.5643"
       id="path111"
       inkscape:connector-curvature="0"
       style="fill:#000000;fill-opacity:0;fill-rule:evenodd" />
    <path
       d="m 675.8228,382.99213 v 0 c 0,-6.38678 22.14783,-11.5643 49.46851,-11.5643 27.32074,0 49.4685,5.17752 49.4685,11.5643 v 46.2572 c 0,6.38681 -22.14776,11.56433 -49.4685,11.56433 -27.32068,0 -49.46851,-5.17752 -49.46851,-11.56433 z"
       id="path113"
       inkscape:connector-curvature="0"
       style="fill:#000000;fill-opacity:0;fill-rule:evenodd" />
    <path
       d="m 774.7598,382.99213 v 0 c 0,6.38678 -22.14777,11.5643 -49.46851,11.5643 -27.32068,0 -49.4685,-5.17752 -49.4685,-11.5643"
       id="path115"
       inkscape:connector-curvature="0"
       style="fill-rule:evenodd;stroke:#000000;stroke-width:1;stroke-linecap:butt;stroke-linejoin:round" />
    <path
       d="m 675.8228,382.99213 v 0 c 0,-6.38678 22.14783,-11.5643 49.46851,-11.5643 27.32074,0 49.4685,5.17752 49.4685,11.5643 v 46.2572 c 0,6.38681 -22.14776,11.56433 -49.4685,11.56433 -27.32068,0 -49.46851,-5.17752 -49.46851,-11.56433 z"
       id="path117"
       inkscape:connector-curvature="0"
       style="fill-rule:evenodd;stroke:#000000;stroke-width:1;stroke-linecap:butt;stroke-linejoin:round" />
    <path
       d="m 688.08844,418.74725 h -1.29688 l 4.75,-12.35938 h 1.29688 z m 13.32031,-3.23438 q 0,-0.25 -0.10937,-0.45312 -0.0937,-0.21875 -0.34375,-0.39063 -0.23438,-0.17187 -0.64063,-0.3125 -0.39062,-0.14062 -0.98437,-0.26562 -0.73438,-0.14063 -1.32813,-0.34375 -0.59375,-0.21875 -1.03125,-0.51563 -0.42187,-0.29687 -0.65625,-0.6875 -0.23437,-0.39062 -0.23437,-0.92187 0,-0.51563 0.23437,-0.95313 0.25,-0.45312 0.6875,-0.78125 0.4375,-0.34375 1.04688,-0.53125 0.60937,-0.20312 1.32812,-0.20312 0.78125,0 1.40625,0.20312 0.625,0.20313 1.0625,0.5625 0.4375,0.35938 0.67188,0.84375 0.25,0.46875 0.25,1.03125 H 701.315 q 0,-0.28125 -0.14062,-0.53125 -0.14063,-0.26562 -0.39063,-0.46875 -0.25,-0.20312 -0.60937,-0.32812 -0.34375,-0.125 -0.79688,-0.125 -0.45312,0 -0.8125,0.10937 -0.34375,0.0937 -0.57812,0.26563 -0.21875,0.17187 -0.34375,0.40625 -0.10938,0.21875 -0.10938,0.45312 0,0.25 0.0937,0.45313 0.0937,0.1875 0.3125,0.34375 0.23438,0.15625 0.625,0.28125 0.39063,0.125 0.98438,0.25 0.78125,0.15625 1.39062,0.375 0.625,0.21875 1.04688,0.51562 0.42187,0.29688 0.64062,0.70313 0.21875,0.39062 0.21875,0.92187 0,0.5625 -0.25,1.03125 -0.25,0.45313 -0.70312,0.78125 -0.45313,0.32813 -1.09375,0.51563 -0.625,0.17187 -1.375,0.17187 -0.85938,0 -1.53125,-0.23437 -0.67188,-0.23438 -1.14063,-0.60938 -0.46875,-0.375 -0.71875,-0.875 -0.23437,-0.5 -0.23437,-1.04687 h 1.4375 q 0.0312,0.45312 0.23437,0.76562 0.21875,0.29688 0.51563,0.48438 0.3125,0.1875 0.6875,0.26562 0.375,0.0781 0.75,0.0781 0.90625,0 1.4375,-0.32813 0.53125,-0.34375 0.54687,-0.90625 z m 7.58594,1.23438 q 0.39062,0 0.75,-0.125 0.375,-0.125 0.65625,-0.34375 0.29687,-0.23438 0.46875,-0.53125 0.1875,-0.29688 0.1875,-0.65625 h 1.375 q -0.0156,0.5625 -0.29688,1.07812 -0.28125,0.51563 -0.76562,0.90625 -0.46875,0.375 -1.09375,0.60938 -0.60938,0.23437 -1.28125,0.23437 -0.96875,0 -1.6875,-0.34375 -0.71875,-0.34375 -1.20313,-0.92187 -0.46875,-0.59375 -0.71875,-1.34375 -0.23437,-0.76563 -0.23437,-1.60938 v -0.32812 q 0,-0.84375 0.23437,-1.60938 0.25,-0.76562 0.71875,-1.34375 0.48438,-0.57812 1.20313,-0.92187 0.71875,-0.34375 1.6875,-0.34375 0.75,0 1.375,0.23437 0.625,0.23438 1.07812,0.65625 0.46875,0.40625 0.71875,0.96875 0.26563,0.5625 0.26563,1.20313 h -1.375 q 0,-0.39063 -0.17188,-0.71875 -0.15625,-0.34375 -0.4375,-0.59375 -0.26562,-0.26563 -0.64062,-0.40625 -0.375,-0.15625 -0.8125,-0.15625 -0.67188,0 -1.14063,0.26562 -0.45312,0.26563 -0.73437,0.70313 -0.28125,0.4375 -0.40625,0.98437 -0.10938,0.53125 -0.10938,1.07813 v 0.32812 q 0,0.54688 0.10938,1.09375 0.125,0.54688 0.40625,0.98438 0.28125,0.42187 0.73437,0.70312 0.45313,0.26563 1.14063,0.26563 z m 11.53906,-7.59375 q 0.20313,0 0.42188,0.0156 0.21875,0 0.40625,0.0312 0.20312,0.0312 0.375,0.0781 0.17187,0.0312 0.28125,0.0781 l -0.20313,1.40625 q -0.42187,-0.0937 -0.79687,-0.125 -0.375,-0.0469 -0.79688,-0.0469 -1.01562,0 -1.64062,0.46875 -0.625,0.45312 -0.92188,1.28125 v 5.42187 h -1.45312 v -8.45312 h 1.375 l 0.0625,1.34375 q 0.51562,-0.70313 1.23437,-1.09375 0.73438,-0.40625 1.65625,-0.40625 z m 9.61719,8.60937 q -0.0937,-0.17187 -0.14063,-0.40625 -0.0469,-0.25 -0.0781,-0.51562 -0.21875,0.21875 -0.48438,0.42187 -0.26562,0.1875 -0.59375,0.34375 -0.32812,0.14063 -0.70312,0.21875 -0.35938,0.0937 -0.76563,0.0937 -0.67187,0 -1.21875,-0.1875 -0.54687,-0.20312 -0.92187,-0.53125 -0.375,-0.34375 -0.59375,-0.79687 -0.20313,-0.45313 -0.20313,-0.98438 0,-0.70312 0.28125,-1.21875 0.28125,-0.53125 0.78125,-0.875 0.51563,-0.34375 1.21875,-0.51562 0.71875,-0.17188 1.60938,-0.17188 h 1.57812 V 411.966 q 0,-0.375 -0.14062,-0.67188 -0.14063,-0.3125 -0.40625,-0.53125 -0.25,-0.21875 -0.625,-0.32812 -0.375,-0.125 -0.82813,-0.125 -0.4375,0 -0.78125,0.10937 -0.32812,0.10938 -0.5625,0.29688 -0.23437,0.17187 -0.375,0.42187 -0.125,0.25 -0.125,0.51563 h -1.45312 q 0.0156,-0.46875 0.23437,-0.90625 0.23438,-0.45313 0.67188,-0.79688 0.4375,-0.35937 1.04687,-0.57812 0.625,-0.21875 1.42188,-0.21875 0.71875,0 1.32812,0.17187 0.625,0.17188 1.0625,0.53125 0.45313,0.35938 0.70313,0.89063 0.26562,0.53125 0.26562,1.23437 v 3.9375 q 0,0.42188 0.0781,0.89063 0.0781,0.46875 0.21875,0.82812 v 0.125 z m -2.5625,-1.10937 q 0.42187,0 0.78125,-0.10938 0.375,-0.10937 0.67187,-0.28125 0.3125,-0.1875 0.53125,-0.40625 0.21875,-0.23437 0.34375,-0.48437 v -1.71875 h -1.34375 q -1.26562,0 -1.96875,0.375 -0.70312,0.375 -0.70312,1.1875 0,0.3125 0.0937,0.57812 0.10937,0.26563 0.3125,0.45313 0.21875,0.1875 0.53125,0.29687 0.32812,0.10938 0.75,0.10938 z m 10.02344,-9.39063 v 2.04688 h 3.21875 v 1.10937 h -3.21875 v 4.59375 q 0,0.5 0.125,0.82813 0.125,0.3125 0.34375,0.5 0.21875,0.1875 0.5,0.26562 0.29687,0.0781 0.60937,0.0781 0.23438,0 0.48438,-0.0156 0.25,-0.0312 0.48437,-0.0625 0.25,-0.0469 0.45313,-0.0937 0.20312,-0.0469 0.34375,-0.0781 l 0.20312,1.03125 q -0.1875,0.10937 -0.45312,0.1875 -0.25,0.0781 -0.5625,0.14062 -0.29688,0.0625 -0.64063,0.0937 -0.32812,0.0312 -0.67187,0.0312 -0.5625,0 -1.04688,-0.15625 -0.48437,-0.17187 -0.84375,-0.51562 -0.35937,-0.34375 -0.57812,-0.89063 -0.20313,-0.5625 -0.20313,-1.34375 v -4.59375 H 733.94 v -1.10937 h 2.21875 v -2.04688 z m 9.78906,9.48438 q 0.39062,0 0.75,-0.125 0.375,-0.125 0.65625,-0.34375 0.29687,-0.23438 0.46875,-0.53125 0.1875,-0.29688 0.1875,-0.65625 h 1.375 q -0.0156,0.5625 -0.29688,1.07812 -0.28125,0.51563 -0.76562,0.90625 -0.46875,0.375 -1.09375,0.60938 -0.60938,0.23437 -1.28125,0.23437 -0.96875,0 -1.6875,-0.34375 -0.71875,-0.34375 -1.20313,-0.92187 -0.46875,-0.59375 -0.71875,-1.34375 -0.23437,-0.76563 -0.23437,-1.60938 v -0.32812 q 0,-0.84375 0.23437,-1.60938 0.25,-0.76562 0.71875,-1.34375 0.48438,-0.57812 1.20313,-0.92187 0.71875,-0.34375 1.6875,-0.34375 0.75,0 1.375,0.23437 0.625,0.23438 1.07812,0.65625 0.46875,0.40625 0.71875,0.96875 0.26563,0.5625 0.26563,1.20313 h -1.375 q 0,-0.39063 -0.17188,-0.71875 -0.15625,-0.34375 -0.4375,-0.59375 -0.26562,-0.26563 -0.64062,-0.40625 -0.375,-0.15625 -0.8125,-0.15625 -0.67188,0 -1.14063,0.26562 -0.45312,0.26563 -0.73437,0.70313 -0.28125,0.4375 -0.40625,0.98437 -0.10938,0.53125 -0.10938,1.07813 v 0.32812 q 0,0.54688 0.10938,1.09375 0.125,0.54688 0.40625,0.98438 0.28125,0.42187 0.73437,0.70312 0.45313,0.26563 1.14063,0.26563 z m 7.44531,-6.1875 q 0.45313,-0.65625 1.10938,-1.03125 0.67187,-0.375 1.5,-0.375 0.65625,0 1.20312,0.1875 0.54688,0.1875 0.92188,0.59375 0.39062,0.40625 0.59375,1.03125 0.20312,0.625 0.20312,1.46875 v 5.32812 H 758.94 v -5.34375 q 0,-1.03125 -0.5,-1.53125 -0.5,-0.51562 -1.42187,-0.51562 -0.6875,0 -1.26563,0.34375 -0.5625,0.34375 -0.90625,0.90625 v 6.14062 h -1.45312 v -12 h 1.45312 z"
       id="path119"
       inkscape:connector-curvature="0"
       style="fill:#000000;fill-rule:nonzero" />
  </g>
</svg>
